<svg width="464" height="180" viewBox="0 0 464 180" fill="none" xmlns="http://www.w3.org/2000/svg">
<path d="M402.017 174.509C402.017 175.456 402.009 176.402 401.993 177.346H62.017C62.0011 176.402 61.9932 175.456 61.9932 174.509C61.9932 80.6135 138.109 4.49756 232.005 4.49756C325.901 4.49756 402.017 80.6135 402.017 174.509Z" fill="#C7DDF3"/>
<path d="M101.956 171.388H101.949C101.601 171.384 101.322 171.098 101.326 170.751C101.344 169.249 101.388 167.73 101.456 166.234C101.472 165.886 101.765 165.617 102.114 165.633C102.462 165.649 102.73 165.944 102.715 166.291C102.647 167.773 102.603 169.278 102.586 170.765C102.582 171.111 102.301 171.388 101.956 171.388ZM362.022 169.798C361.681 169.798 361.401 169.526 361.393 169.183C361.357 167.698 361.296 166.193 361.21 164.711C361.19 164.364 361.455 164.066 361.802 164.046C362.151 164.024 362.447 164.291 362.468 164.638C362.554 166.135 362.616 167.654 362.652 169.154C362.66 169.501 362.385 169.79 362.037 169.798C362.032 169.798 362.027 169.798 362.022 169.798ZM102.525 160.612C102.505 160.612 102.485 160.612 102.465 160.61C102.119 160.577 101.865 160.27 101.897 159.924C102.038 158.429 102.206 156.918 102.398 155.432C102.442 155.087 102.758 154.844 103.103 154.888C103.448 154.933 103.692 155.248 103.647 155.593C103.457 157.065 103.291 158.561 103.151 160.042C103.121 160.368 102.846 160.612 102.525 160.612ZM361.323 159.03C361.005 159.03 360.732 158.79 360.697 158.467C360.54 156.989 360.355 155.494 360.147 154.025C360.099 153.681 360.338 153.362 360.683 153.313C361.028 153.264 361.346 153.504 361.395 153.849C361.604 155.332 361.791 156.841 361.95 158.333C361.987 158.679 361.736 158.989 361.39 159.026C361.368 159.029 361.345 159.03 361.323 159.03ZM103.98 149.92C103.943 149.92 103.906 149.917 103.868 149.91C103.526 149.849 103.298 149.522 103.359 149.179C103.623 147.703 103.916 146.211 104.231 144.745C104.304 144.405 104.639 144.188 104.979 144.261C105.319 144.334 105.536 144.669 105.463 145.009C105.151 146.461 104.861 147.939 104.599 149.401C104.545 149.706 104.279 149.92 103.98 149.92ZM359.737 148.356C359.441 148.356 359.177 148.147 359.119 147.845C358.84 146.385 358.531 144.911 358.202 143.464C358.125 143.125 358.337 142.788 358.676 142.71C359.015 142.633 359.353 142.845 359.43 143.185C359.763 144.646 360.075 146.134 360.357 147.608C360.422 147.95 360.198 148.28 359.856 148.345C359.817 148.353 359.777 148.356 359.737 148.356ZM106.319 139.385C106.265 139.385 106.211 139.379 106.157 139.364C105.82 139.275 105.621 138.93 105.71 138.593C106.096 137.145 106.513 135.682 106.949 134.247C107.05 133.914 107.402 133.726 107.735 133.827C108.068 133.929 108.256 134.28 108.154 134.613C107.722 136.035 107.309 137.483 106.927 138.918C106.852 139.199 106.598 139.385 106.319 139.385ZM357.269 137.852C356.993 137.852 356.74 137.67 356.663 137.391C356.262 135.96 355.832 134.517 355.383 133.103C355.277 132.771 355.461 132.417 355.792 132.312C356.124 132.206 356.478 132.39 356.583 132.721C357.037 134.149 357.472 135.607 357.876 137.052C357.969 137.387 357.774 137.735 357.439 137.828C357.382 137.844 357.325 137.852 357.269 137.852ZM109.535 129.068C109.465 129.068 109.393 129.056 109.323 129.031C108.995 128.913 108.825 128.553 108.942 128.225C109.45 126.81 109.989 125.383 110.545 123.986C110.674 123.663 111.04 123.505 111.364 123.634C111.687 123.763 111.844 124.129 111.716 124.452C111.165 125.836 110.631 127.248 110.128 128.65C110.036 128.908 109.794 129.068 109.535 129.068ZM353.931 127.589C353.676 127.589 353.435 127.433 353.341 127.179C352.823 125.788 352.274 124.386 351.707 123.012C351.574 122.691 351.728 122.322 352.049 122.19C352.371 122.057 352.739 122.21 352.872 122.532C353.444 123.919 353.999 125.335 354.522 126.74C354.643 127.066 354.477 127.428 354.151 127.55C354.079 127.577 354.004 127.589 353.931 127.589ZM113.607 119.047C113.519 119.047 113.431 119.029 113.346 118.99C113.029 118.846 112.89 118.472 113.034 118.156C113.658 116.789 114.314 115.414 114.985 114.069C115.14 113.757 115.518 113.631 115.829 113.786C116.141 113.941 116.267 114.32 116.112 114.631C115.448 115.963 114.798 117.325 114.18 118.679C114.075 118.91 113.846 119.047 113.607 119.047ZM349.754 117.653C349.518 117.653 349.291 117.52 349.184 117.291C348.553 115.951 347.891 114.603 347.214 113.285C347.055 112.975 347.177 112.596 347.486 112.437C347.796 112.278 348.175 112.4 348.334 112.709C349.018 114.041 349.687 115.402 350.324 116.755C350.472 117.07 350.337 117.445 350.022 117.593C349.935 117.634 349.844 117.653 349.754 117.653ZM118.498 109.407C118.394 109.407 118.288 109.381 118.19 109.327C117.887 109.156 117.779 108.773 117.949 108.469C118.685 107.159 119.452 105.844 120.232 104.561C120.413 104.264 120.8 104.169 121.097 104.35C121.395 104.53 121.489 104.918 121.309 105.215C120.537 106.486 119.776 107.788 119.048 109.086C118.932 109.291 118.718 109.407 118.498 109.407ZM344.768 108.105C344.551 108.105 344.339 107.992 344.222 107.79C343.481 106.505 342.708 105.215 341.924 103.958C341.74 103.662 341.831 103.274 342.126 103.09C342.421 102.906 342.81 102.996 342.993 103.291C343.785 104.561 344.566 105.863 345.313 107.161C345.487 107.462 345.384 107.847 345.082 108.021C344.983 108.078 344.875 108.105 344.768 108.105ZM124.171 100.212C124.05 100.212 123.927 100.177 123.819 100.104C123.531 99.9092 123.455 99.5177 123.65 99.2296C124.49 97.9868 125.364 96.7407 126.248 95.5258C126.452 95.2444 126.846 95.1823 127.127 95.3869C127.409 95.5915 127.471 95.9855 127.266 96.2668C126.391 97.47 125.526 98.7041 124.694 99.9348C124.572 100.115 124.374 100.212 124.171 100.212ZM339.005 98.9982C338.805 98.9982 338.608 98.9035 338.486 98.7268C337.642 97.5072 336.764 96.2853 335.878 95.0952C335.67 94.8162 335.728 94.4215 336.007 94.2138C336.286 94.006 336.68 94.0637 336.888 94.3428C337.783 95.5444 338.669 96.7782 339.522 98.0097C339.72 98.2957 339.649 98.6881 339.363 98.8861C339.253 98.9618 339.128 98.9982 339.005 98.9982ZM130.584 91.5224C130.446 91.5224 130.306 91.4769 130.19 91.3834C129.919 91.1654 129.876 90.769 130.094 90.4979C131.034 89.3285 132.007 88.1595 132.987 87.0232C133.214 86.7598 133.612 86.7304 133.875 86.9575C134.139 87.1847 134.168 87.5824 133.941 87.8459C132.971 88.9711 132.007 90.129 131.076 91.2871C130.951 91.4419 130.769 91.5224 130.584 91.5224ZM332.504 90.3936C332.323 90.3936 332.142 90.3154 332.018 90.1639C331.074 89.0165 330.098 87.8706 329.117 86.758C328.887 86.4971 328.912 86.0991 329.173 85.869C329.434 85.6389 329.832 85.664 330.062 85.9248C331.053 87.0483 332.038 88.2053 332.991 89.3637C333.212 89.6324 333.173 90.0293 332.904 90.2503C332.787 90.3466 332.645 90.3936 332.504 90.3936ZM137.69 83.395C137.534 83.395 137.378 83.3375 137.256 83.2217C137.004 82.9822 136.994 82.5835 137.233 82.3313C138.266 81.2441 139.332 80.1597 140.402 79.1085C140.65 78.8645 141.049 78.8682 141.292 79.1162C141.536 79.3643 141.533 79.7631 141.285 80.0069C140.225 81.048 139.17 82.122 138.147 83.1988C138.023 83.3292 137.857 83.395 137.69 83.395ZM325.314 82.3509C325.149 82.3509 324.985 82.287 324.862 82.1598C323.828 81.0948 322.76 80.0326 321.689 79.0028C321.438 78.7618 321.43 78.3631 321.671 78.1123C321.912 77.8617 322.311 77.8536 322.562 78.0948C323.643 79.1344 324.721 80.2068 325.766 81.2822C326.008 81.5318 326.002 81.9305 325.753 82.1729C325.63 82.2917 325.472 82.3509 325.314 82.3509ZM145.438 75.8839C145.265 75.8839 145.092 75.813 144.968 75.6735C144.736 75.4139 144.759 75.0158 145.018 74.7842C146.137 73.7856 147.289 72.7933 148.44 71.8348C148.707 71.6123 149.104 71.6486 149.327 71.9159C149.549 72.1832 149.513 72.5804 149.246 72.8029C148.106 73.7522 146.965 74.735 145.857 75.724C145.737 75.8312 145.587 75.8839 145.438 75.8839ZM317.482 74.9246C317.335 74.9246 317.187 74.8734 317.068 74.7693C315.948 73.7918 314.796 72.8209 313.644 71.8834C313.374 71.6638 313.333 71.2671 313.553 70.9973C313.772 70.7275 314.169 70.6868 314.439 70.9064C315.602 71.8529 316.765 72.8333 317.896 73.8201C318.158 74.0489 318.185 74.4468 317.956 74.7089C317.832 74.8516 317.657 74.9246 317.482 74.9246ZM153.775 69.04C153.584 69.04 153.396 68.9535 153.272 68.7893C153.062 68.5116 153.118 68.1167 153.395 67.9072C154.592 67.0051 155.82 66.1115 157.047 65.2514C157.331 65.0515 157.724 65.1206 157.924 65.4054C158.124 65.6902 158.055 66.083 157.77 66.2827C156.555 67.1346 155.339 68.0195 154.154 68.913C154.04 68.9986 153.907 69.04 153.775 69.04ZM309.06 68.1671C308.93 68.1671 308.799 68.1272 308.687 68.0443C307.49 67.1626 306.261 66.2897 305.035 65.4499C304.748 65.2533 304.674 64.8614 304.871 64.5743C305.067 64.2872 305.459 64.2139 305.746 64.4104C306.985 65.2584 308.226 66.1398 309.434 67.0301C309.714 67.2364 309.774 67.6307 309.568 67.9108C309.444 68.0784 309.253 68.1671 309.06 68.1671ZM162.644 62.9104C162.435 62.9104 162.231 62.8065 162.111 62.6168C161.925 62.3227 162.013 61.9337 162.307 61.7479C163.574 60.9481 164.871 60.1596 166.163 59.4045C166.464 59.2289 166.849 59.3301 167.025 59.6305C167.2 59.9308 167.099 60.3166 166.799 60.492C165.519 61.24 164.234 62.0208 162.98 62.8129C162.876 62.8789 162.759 62.9104 162.644 62.9104ZM300.105 62.1264C299.993 62.1264 299.878 62.0962 299.775 62.0328C298.51 61.2531 297.212 60.4847 295.919 59.7488C295.616 59.5767 295.511 59.1922 295.683 58.8899C295.855 58.5876 296.239 58.4818 296.542 58.6539C297.848 59.397 299.158 60.1729 300.436 60.9602C300.732 61.1426 300.824 61.5305 300.642 61.8267C300.523 62.0199 300.317 62.1264 300.105 62.1264ZM171.985 57.5387C171.758 57.5387 171.538 57.4153 171.426 57.1998C171.265 56.8913 171.385 56.5109 171.693 56.3501C173.021 55.6582 174.378 54.9806 175.727 54.3359C176.041 54.1857 176.417 54.3188 176.567 54.6326C176.717 54.9465 176.584 55.3225 176.271 55.4725C174.934 56.1109 173.59 56.7821 172.275 57.4673C172.182 57.5157 172.083 57.5387 171.985 57.5387ZM290.676 56.8472C290.58 56.8472 290.483 56.8253 290.392 56.7791C289.063 56.1064 287.705 55.4483 286.356 54.823C286.04 54.6768 285.903 54.3024 286.049 53.9867C286.195 53.671 286.57 53.5337 286.885 53.68C288.248 54.3115 289.619 54.976 290.961 55.6553C291.271 55.8124 291.395 56.1914 291.238 56.5017C291.127 56.7209 290.906 56.8472 290.676 56.8472ZM181.733 52.9637C181.487 52.9637 181.253 52.8186 181.152 52.5774C181.017 52.2566 181.168 51.8874 181.489 51.7529C182.868 51.1743 184.276 50.6122 185.673 50.0825C185.998 49.9588 186.362 50.1228 186.485 50.448C186.609 50.7733 186.445 51.137 186.12 51.2603C184.736 51.785 183.342 52.3415 181.976 52.9145C181.896 52.9479 181.814 52.9637 181.733 52.9637ZM280.834 52.3698C280.755 52.3698 280.675 52.3549 280.597 52.3235C279.218 51.7643 277.809 51.2215 276.409 50.7104C276.083 50.591 275.915 50.2294 276.034 49.9027C276.153 49.576 276.515 49.4076 276.842 49.5271C278.255 50.0433 279.678 50.5914 281.071 51.1561C281.393 51.2868 281.548 51.654 281.418 51.9764C281.318 52.2213 281.083 52.3698 280.834 52.3698ZM191.836 49.2131C191.57 49.2131 191.324 49.0437 191.237 48.7774C191.13 48.4465 191.311 48.0913 191.642 47.9839C193.068 47.5214 194.522 47.0774 195.965 46.6645C196.299 46.5685 196.648 46.7622 196.743 47.0966C196.839 47.4311 196.646 47.7798 196.311 47.8755C194.883 48.2845 193.443 48.7241 192.031 49.1822C191.966 49.2031 191.901 49.2131 191.836 49.2131ZM270.646 48.7289C270.584 48.7289 270.521 48.7197 270.459 48.7004C269.041 48.2597 267.595 47.8379 266.162 47.4469C265.826 47.3553 265.629 47.009 265.72 46.6735C265.812 46.3378 266.159 46.1403 266.494 46.2316C267.941 46.6265 269.4 47.0523 270.833 47.4974C271.165 47.6006 271.35 47.9536 271.247 48.2858C271.163 48.5557 270.915 48.7289 270.646 48.7289ZM207.245 44.6141C207.313 44.9553 207.091 45.2867 206.75 45.3542C205.292 45.6423 203.821 45.9601 202.375 46.2987C202.327 46.31 202.278 46.3154 202.231 46.3154C201.945 46.3154 201.686 46.1195 201.618 45.8291C201.539 45.4904 201.749 45.1515 202.088 45.0721M260.216 45.9602C260.171 45.9602 260.125 45.9554 260.079 45.9452C258.63 45.6246 257.154 45.3251 255.693 45.0548C255.351 44.9916 255.125 44.663 255.188 44.3209C255.252 43.9789 255.58 43.7528 255.922 43.8161C257.398 44.089 258.888 44.3915 260.351 44.7153C260.691 44.7904 260.906 45.1266 260.83 45.4663C260.765 45.7601 260.505 45.9602 260.216 45.9602ZM212.83 44.2951C212.523 44.2951 212.254 44.0701 212.208 43.7572C212.157 43.4131 212.395 43.0929 212.739 43.042C214.222 42.823 215.73 42.6268 217.221 42.4589C217.566 42.4199 217.878 42.6687 217.917 43.0144C217.956 43.36 217.707 43.6718 217.362 43.7107C215.885 43.877 214.392 44.0713 212.923 44.2882C212.892 44.2928 212.861 44.2951 212.83 44.2951ZM249.592 44.071C249.564 44.071 249.535 44.0691 249.507 44.0652C248.036 43.8663 246.54 43.6904 245.062 43.5423C244.716 43.5076 244.463 43.1989 244.498 42.8528C244.532 42.5067 244.841 42.2548 245.187 42.2889C246.68 42.4384 248.19 42.616 249.675 42.8168C250.02 42.8634 250.262 43.1806 250.215 43.5254C250.173 43.8415 249.902 44.071 249.592 44.071ZM223.561 43.1614C223.232 43.1614 222.955 42.9052 222.934 42.5718C222.911 42.2246 223.175 41.9251 223.522 41.903C225.017 41.8071 226.535 41.7359 228.036 41.6911C228.385 41.6823 228.674 41.9543 228.685 42.302C228.695 42.6497 228.421 42.94 228.074 42.9503C226.587 42.9946 225.083 43.0652 223.602 43.1601C223.589 43.161 223.575 43.1614 223.561 43.1614ZM238.847 43.0688C238.836 43.0688 238.825 43.0685 238.814 43.068C237.333 42.9911 235.828 42.9388 234.341 42.9125C233.993 42.9063 233.716 42.6193 233.723 42.2715C233.729 41.9275 234.009 41.6528 234.352 41.6528L234.363 41.6529C235.865 41.6796 237.384 41.7324 238.879 41.8099C239.227 41.828 239.494 42.1242 239.476 42.4715C239.458 42.8078 239.18 43.0688 238.847 43.0688Z" fill="white"/>
<path d="M147.733 60.6628C158.901 49.4951 158.901 31.3887 147.733 20.221C136.565 9.05332 118.459 9.05332 107.291 20.221C96.1235 31.3887 96.1235 49.4951 107.291 60.6628C118.459 71.8305 136.565 71.8305 147.733 60.6628Z" stroke="#38488C" stroke-width="2.54091" stroke-miterlimit="10"/>
<path d="M127.511 11.8462V69.0395" stroke="#38488C" stroke-width="2.54091" stroke-miterlimit="10"/>
<path d="M127.512 69.0395C137.546 69.0395 145.681 56.2363 145.681 40.4428C145.681 24.6493 137.546 11.8462 127.512 11.8462C117.477 11.8462 109.342 24.6493 109.342 40.4428C109.342 56.2363 117.477 69.0395 127.512 69.0395Z" stroke="#38488C" stroke-width="2.54091" stroke-miterlimit="10"/>
<path d="M98.9141 40.4419H156.108" stroke="#38488C" stroke-width="2.54091" stroke-miterlimit="10"/>
<path d="M102.603 26.356H152.55" stroke="#38488C" stroke-width="2.54091" stroke-miterlimit="10"/>
<path d="M102.539 54.5278H152.486" stroke="#38488C" stroke-width="2.54091" stroke-miterlimit="10"/>
<path d="M442.338 176.279H23.9101C23.0272 176.279 22.3115 176.995 22.3115 177.877V178.12C22.3115 179.002 23.0272 179.718 23.9101 179.718H442.338C443.221 179.718 443.937 179.002 443.937 178.12V177.877C443.937 176.995 443.221 176.279 442.338 176.279Z" fill="#191E3A"/>
<path d="M15.5704 176.279H2.07024C1.18738 176.279 0.47168 176.994 0.47168 177.877V178.12C0.47168 179.002 1.18738 179.718 2.07024 179.718H15.5704C16.4533 179.718 17.169 179.002 17.169 178.12V177.877C17.169 176.994 16.4533 176.279 15.5704 176.279Z" fill="#191E3A"/>
<path d="M461.447 180H449.811C448.661 180 447.729 179.167 447.729 178.14C447.729 177.112 448.661 176.279 449.811 176.279H461.447C462.596 176.279 463.528 177.112 463.528 178.14C463.528 179.167 462.596 180 461.447 180Z" fill="#191E3A"/>
<path d="M324.675 41.6675H139.296C135.704 41.6675 132.793 44.5788 132.793 48.1701V157.864C132.793 161.456 135.704 164.367 139.296 164.367H324.675C328.266 164.367 331.178 161.456 331.178 157.864V48.1701C331.178 44.5788 328.266 41.6675 324.675 41.6675Z" fill="#262F5F"/>
<path d="M325.461 48.0757H138.508V156.925H325.461V48.0757Z" fill="white"/>
<path d="M141.161 48.0757H138.508V156.925H141.161V48.0757Z" fill="#211F44"/>
<path d="M211.072 50.7286L141.16 120.643V148.972L239.411 50.7217L211.072 50.7286Z" fill="#F2F8FF"/>
<path d="M325.46 48.0742V75.237L243.773 156.924H180.482L288.04 49.3671V48.0742H325.46Z" fill="#F2F8FF"/>
<path d="M325.462 84.2139V101.491L270.029 156.924H252.752L325.462 84.2139Z" fill="#F2F8FF"/>
<path d="M325.464 48.0757H322.812V156.925H325.464V48.0757Z" fill="#211F44"/>
<path d="M138.508 48.0753V50.728L325.461 50.728V48.0753L138.508 48.0753Z" fill="#211F44"/>
<path d="M115.49 165.694H348.518V170.536C348.518 173.705 345.945 176.278 342.776 176.278H121.232C118.063 176.278 115.49 173.705 115.49 170.536V165.694Z" fill="#211F44"/>
<path d="M335.551 163.354H128.417C127.125 163.354 126.077 164.402 126.077 165.694H337.892C337.892 164.402 336.844 163.354 335.551 163.354Z" fill="#739CD2"/>
<path d="M235.433 165.717H211.073L212.882 168.088C213.391 168.754 214.182 169.146 215.021 169.146H248.989C249.827 169.146 250.618 168.754 251.127 168.088L252.936 165.717H235.433Z" fill="#9DBDE4"/>
<path d="M211.992 112.622C211.05 112.196 209.791 111.981 208.252 111.981H207.272V89.5525C207.272 85.9773 205.677 84.1646 202.53 84.1646C201.54 84.1646 200.681 84.5014 199.974 85.1655C199.311 85.7894 198.455 86.8039 197.433 88.1803L181.883 108.982C181.452 109.55 181.09 110.03 180.796 110.421C180.499 110.818 180.209 111.233 179.935 111.654C179.65 112.092 179.432 112.517 179.289 112.916C179.142 113.326 179.067 113.738 179.067 114.141C179.067 115.665 179.568 116.891 180.554 117.783C181.532 118.669 183.002 119.118 184.925 119.118H199.372V124.293C199.372 125.826 199.737 127.009 200.456 127.812C201.184 128.624 202.148 129.036 203.322 129.036C204.515 129.036 205.484 128.634 206.202 127.843C206.912 127.058 207.272 125.864 207.272 124.293V119.118H208.78C210.318 119.118 211.498 118.839 212.286 118.29C213.106 117.718 213.522 116.806 213.522 115.579C213.522 114.075 213.007 113.081 211.992 112.622ZM199.372 96.0718V111.981H187.598L199.372 96.0718Z" fill="#2C447D"/>
<path d="M242.003 88.3426C240.739 87.0591 239.25 86.07 237.578 85.4029C235.909 84.7374 234.028 84.3999 231.987 84.3999C228.893 84.3999 226.189 85.1614 223.951 86.6631C221.713 88.1655 219.985 90.3752 218.813 93.2353C218.143 94.9509 217.643 97.0265 217.329 99.4042C217.016 101.772 216.857 104.469 216.857 107.422C216.857 109.715 217.002 111.875 217.286 113.844C217.571 115.821 218.025 117.652 218.638 119.294C219.846 122.304 221.671 124.695 224.062 126.402C226.456 128.111 229.202 128.978 232.222 128.978C234.842 128.978 237.26 128.332 239.408 127.06C241.552 125.79 243.324 123.959 244.674 121.615C245.741 119.719 246.482 117.575 246.878 115.245C247.27 112.932 247.468 110.132 247.468 106.923C247.468 101.003 246.71 96.3532 245.212 93.1021C244.341 91.2226 243.262 89.6212 242.003 88.3426ZM238.864 106.337C238.864 110.078 238.658 113.141 238.252 115.442C237.852 117.711 237.151 119.474 236.169 120.683C235.199 121.876 233.889 122.456 232.163 122.456C230.494 122.456 229.211 121.899 228.241 120.752C227.261 119.592 226.551 117.845 226.132 115.558C225.707 113.239 225.491 110.215 225.491 106.571C225.491 101.213 225.993 97.1994 226.983 94.6431C227.953 92.1386 229.628 90.9211 232.104 90.9211C233.81 90.9211 235.16 91.476 236.117 92.5703C237.096 93.6907 237.804 95.3833 238.223 97.6011C238.648 99.854 238.864 102.793 238.864 106.337Z" fill="#2C447D"/>
<path d="M283.413 112.622C282.47 112.196 281.212 111.981 279.673 111.981H278.693V89.5525C278.693 85.9773 277.098 84.1646 273.951 84.1646C272.961 84.1646 272.102 84.5014 271.395 85.1655C270.732 85.7895 269.876 86.804 268.854 88.1803L253.304 108.982C252.873 109.55 252.511 110.03 252.217 110.421C251.92 110.818 251.63 111.233 251.356 111.654C251.07 112.092 250.853 112.517 250.71 112.916C250.563 113.326 250.488 113.738 250.488 114.141C250.488 115.665 250.989 116.891 251.975 117.783C252.953 118.669 254.423 119.118 256.346 119.118H270.793V124.293C270.793 125.826 271.158 127.009 271.877 127.812C272.605 128.624 273.569 129.036 274.743 129.036C275.936 129.036 276.905 128.634 277.623 127.843C278.333 127.059 278.693 125.864 278.693 124.293V119.118H280.201C281.739 119.118 282.919 118.839 283.707 118.29C284.527 117.718 284.943 116.806 284.943 115.579C284.943 114.075 284.428 113.081 283.413 112.622ZM270.793 96.0718V111.981H259.019L270.793 96.0718Z" fill="#2C447D"/>
<path d="M375.495 167.325V167.326C373.639 169.182 370.629 169.182 368.773 167.326L339.918 138.47L336.251 134.803C338.92 133.041 341.21 130.751 342.972 128.082L375.495 160.605C377.351 162.461 377.351 165.469 375.495 167.325Z" fill="#38488C"/>
<path d="M344.437 129.544L351.957 137.065C350.195 139.734 347.906 142.023 345.237 143.786H345.236L341.383 139.932L337.717 136.266C340.386 134.504 342.676 132.214 344.437 129.544Z" fill="#2B3872"/>
<path d="M351.929 113.883C351.878 112.666 351.751 111.469 351.551 110.295C350.422 103.625 346.987 97.7377 342.096 93.4841C337.062 89.1047 330.486 86.4536 323.291 86.4536C307.46 86.4536 294.626 99.2873 294.626 115.119C294.626 116.215 294.688 117.297 294.807 118.361C295.183 121.696 296.13 124.857 297.55 127.745V127.746C299.589 131.897 302.604 135.482 306.295 138.203C306.894 138.646 307.513 139.066 308.147 139.461C312.542 142.201 317.732 143.784 323.291 143.784C329.491 143.784 335.231 141.816 339.92 138.47C339.92 138.47 339.921 138.47 339.921 138.469C342.517 136.618 344.79 134.345 346.642 131.749V131.748H346.643C348.503 129.14 349.938 126.208 350.844 123.052C351.568 120.533 351.956 117.872 351.956 115.119C351.956 114.705 351.947 114.293 351.929 113.883ZM323.291 138.684C318.134 138.684 313.365 137.028 309.485 134.218C305.719 131.492 302.791 127.678 301.16 123.238C300.232 120.707 299.725 117.972 299.725 115.119C299.725 114.046 299.797 112.989 299.936 111.954C301.109 103.216 307.072 95.994 315.096 93.0176C317.648 92.071 320.409 91.5536 323.291 91.5536C324.333 91.5536 325.359 91.621 326.366 91.7531C331.143 92.3744 335.471 94.4279 338.906 97.4689C343.783 101.786 346.857 108.093 346.857 115.119C346.857 115.478 346.849 115.835 346.832 116.19C346.756 117.92 346.491 119.601 346.06 121.214C345.401 123.688 344.349 126 342.975 128.082C341.213 130.751 338.923 133.041 336.254 134.803C335.599 135.235 334.921 135.635 334.222 136.001C332.73 136.784 331.143 137.411 329.483 137.861C327.51 138.398 325.434 138.684 323.291 138.684Z" fill="#38488C"/>
<path d="M305.443 117.71C304.227 117.71 303.242 116.725 303.242 115.509C303.242 110.05 305.368 104.918 309.228 101.058C313.088 97.1985 318.22 95.0728 323.679 95.0728C324.894 95.0728 325.879 96.0581 325.879 97.2735C325.879 98.4889 324.894 99.4742 323.679 99.4742C319.396 99.4742 315.369 101.142 312.34 104.171C309.312 107.199 307.644 111.226 307.644 115.509C307.644 116.725 306.658 117.71 305.443 117.71Z" fill="white"/>
</svg>
