<svg width="324" height="223" viewBox="0 0 324 223" fill="none" xmlns="http://www.w3.org/2000/svg">
<path fill-rule="evenodd" clip-rule="evenodd" d="M16.6419 219.043C-10.6764 167.423 14.361 137.323 32.8827 122.964C56.5109 104.648 43.4654 86.395 40.7788 60.6082C35.7409 12.2532 89.139 -7.87299 115.902 3.68214C137.813 13.1428 149.413 25.9281 167.425 25.9281C196.302 25.9281 194.973 13.1049 223.305 3.68214C256.452 -7.34146 298.934 16.9243 298.934 60.6082C298.934 91.8175 277.899 117.891 302.052 140.928C344.775 181.678 311.725 219.043 311.725 219.043H16.6419Z" fill="#F1F7FD"/>
<path fill-rule="evenodd" clip-rule="evenodd" d="M323.919 220.473C323.919 219.52 323.145 218.746 322.192 218.746H1.80777C0.85475 218.746 0.0810547 219.52 0.0810547 220.473V220.773C0.0810547 221.726 0.85475 222.5 1.80777 222.5H322.192C323.145 222.5 323.919 221.726 323.919 220.773V220.473Z" fill="#83A4CD"/>
<path fill-rule="evenodd" clip-rule="evenodd" d="M120.17 146.427V141.276C120.17 140.92 119.881 140.632 119.526 140.632C119.17 140.632 118.882 140.92 118.882 141.276V146.427C118.882 146.782 119.17 147.07 119.526 147.07C119.881 147.07 120.17 146.782 120.17 146.427ZM120.17 136.125V130.974C120.17 130.618 119.881 130.33 119.526 130.33C119.17 130.33 118.882 130.618 118.882 130.974V136.125C118.882 136.48 119.17 136.769 119.526 136.769C119.881 136.769 120.17 136.48 120.17 136.125ZM120.17 125.823V120.672C120.17 120.317 119.881 120.028 119.526 120.028C119.17 120.028 118.882 120.316 118.882 120.672V125.823C118.882 126.178 119.17 126.467 119.526 126.467C119.881 126.467 120.17 126.178 120.17 125.823ZM120.17 115.521V110.37C120.17 110.015 119.881 109.726 119.526 109.726C119.17 109.726 118.882 110.015 118.882 110.37V115.521C118.882 115.876 119.17 116.165 119.526 116.165C119.881 116.165 120.17 115.876 120.17 115.521ZM120.17 105.219V100.068C120.17 99.7131 119.881 99.4246 119.526 99.4246C119.17 99.4246 118.882 99.7131 118.882 100.068V105.219C118.882 105.575 119.17 105.863 119.526 105.863C119.881 105.863 120.17 105.575 120.17 105.219ZM120.17 94.9175V89.7666C120.17 89.4113 119.881 89.1228 119.526 89.1228C119.17 89.1228 118.882 89.4113 118.882 89.7666V94.9175C118.882 95.2729 119.17 95.5614 119.526 95.5614C119.881 95.5614 120.17 95.2729 120.17 94.9175ZM120.17 84.6158V79.4648C120.17 79.1095 119.881 78.821 119.526 78.821C119.17 78.821 118.882 79.1095 118.882 79.4648V84.6158C118.882 84.9712 119.17 85.2597 119.526 85.2597C119.881 85.2597 120.17 84.9712 120.17 84.6158ZM236.053 66.9675V72.1184C236.053 72.4738 236.342 72.7623 236.697 72.7623C237.053 72.7623 237.341 72.4738 237.341 72.1184V66.9675C237.341 66.6122 237.053 66.3237 236.697 66.3237C236.342 66.3237 236.053 66.6122 236.053 66.9675ZM120.17 74.314V69.1631C120.17 68.8077 119.881 68.5192 119.526 68.5192C119.17 68.5192 118.882 68.8077 118.882 69.1631V74.314C118.882 74.6693 119.17 74.9578 119.526 74.9578C119.881 74.9578 120.17 74.6693 120.17 74.314ZM236.053 56.6658V61.8167C236.053 62.172 236.342 62.4605 236.697 62.4605C237.053 62.4605 237.341 62.172 237.341 61.8167V56.6658C237.341 56.3104 237.053 56.0219 236.697 56.0219C236.342 56.0219 236.053 56.3104 236.053 56.6658ZM120.17 64.0122V58.8613C120.17 58.506 119.881 58.2175 119.526 58.2175C119.17 58.2175 118.882 58.506 118.882 58.8613V64.0122C118.882 64.3676 119.17 64.6561 119.526 64.6561C119.881 64.6561 120.17 64.3676 120.17 64.0122ZM236.053 46.364V51.5149C236.053 51.8703 236.342 52.1588 236.697 52.1588C237.053 52.1588 237.341 51.8703 237.341 51.5149V46.364C237.341 46.0087 237.053 45.7202 236.697 45.7202C236.342 45.7202 236.053 46.0087 236.053 46.364ZM235.746 37.6569H236.053V41.2132C236.053 41.5685 236.342 41.857 236.697 41.857C237.053 41.857 237.341 41.5685 237.341 41.2132V37.0131C237.341 36.6574 237.053 36.3692 236.697 36.3692H235.746C235.391 36.3692 235.103 36.6576 235.103 37.0131C235.103 37.3684 235.391 37.6569 235.746 37.6569ZM143.03 37.6569H148.181C148.536 37.6569 148.825 37.3684 148.825 37.0131C148.825 36.6576 148.536 36.3691 148.181 36.3691H143.03C142.675 36.3691 142.386 36.6576 142.386 37.0131C142.386 37.3684 142.675 37.6569 143.03 37.6569ZM153.332 37.6569H158.483C158.838 37.6569 159.127 37.3684 159.127 37.0131C159.127 36.6576 158.838 36.3691 158.483 36.3691H153.332C152.977 36.3691 152.688 36.6576 152.688 37.0131C152.688 37.3684 152.977 37.6569 153.332 37.6569ZM204.841 37.6569H209.992C210.347 37.6569 210.636 37.3684 210.636 37.0131C210.636 36.6576 210.347 36.3691 209.992 36.3691H204.841C204.486 36.3691 204.197 36.6576 204.197 37.0131C204.197 37.3684 204.486 37.6569 204.841 37.6569ZM132.728 37.6569H137.879C138.235 37.6569 138.523 37.3684 138.523 37.0131C138.523 36.6576 138.235 36.3691 137.879 36.3691H132.728C132.373 36.3691 132.084 36.6576 132.084 37.0131C132.084 37.3684 132.373 37.6569 132.728 37.6569ZM163.634 37.6569H168.785C169.14 37.6569 169.429 37.3684 169.429 37.0131C169.429 36.6576 169.14 36.3691 168.785 36.3691H163.634C163.279 36.3691 162.99 36.6576 162.99 37.0131C162.99 37.3684 163.279 37.6569 163.634 37.6569ZM215.143 37.6569H220.294C220.649 37.6569 220.938 37.3684 220.938 37.0131C220.938 36.6576 220.649 36.3691 220.294 36.3691H215.143C214.787 36.3691 214.499 36.6576 214.499 37.0131C214.499 37.3684 214.787 37.6569 215.143 37.6569ZM225.445 37.6569H230.595C230.951 37.6569 231.239 37.3684 231.239 37.0131C231.239 36.6576 230.951 36.3691 230.595 36.3691H225.445C225.089 36.3691 224.801 36.6576 224.801 37.0131C224.801 37.3684 225.089 37.6569 225.445 37.6569ZM173.936 37.6569H179.087C179.442 37.6569 179.73 37.3684 179.73 37.0131C179.73 36.6576 179.442 36.3691 179.087 36.3691H173.936C173.58 36.3691 173.292 36.6576 173.292 37.0131C173.292 37.3684 173.58 37.6569 173.936 37.6569ZM184.237 37.6569H189.388C189.744 37.6569 190.032 37.3684 190.032 37.0131C190.032 36.6576 189.744 36.3691 189.388 36.3691H184.237C183.882 36.3691 183.594 36.6576 183.594 37.0131C183.594 37.3684 183.882 37.6569 184.237 37.6569ZM194.539 37.6569H199.69C200.045 37.6569 200.334 37.3684 200.334 37.0131C200.334 36.6576 200.045 36.3691 199.69 36.3691H194.539C194.184 36.3691 193.895 36.6576 193.895 37.0131C193.895 37.3684 194.184 37.6569 194.539 37.6569Z" fill="#728BBE"/>
<path fill-rule="evenodd" clip-rule="evenodd" d="M123.329 31.1016L119.496 34.9345L115.663 31.1016L113.797 32.9672L117.63 36.8001L113.797 40.6331L115.663 42.4988L119.496 38.6657L123.329 42.4988L125.194 40.6331L121.361 36.8001L125.194 32.9672L123.329 31.1016Z" fill="#EE7070"/>
<path d="M276.492 56.4292H230.25V60.3353H276.492V56.4292Z" fill="#86A8D8"/>
<path d="M278.086 214.692H231.845V218.598H278.086V214.692Z" fill="#86A8D8"/>
<path fill-rule="evenodd" clip-rule="evenodd" d="M260.683 60.0872C260.683 58.068 259.044 56.4287 257.024 56.4287H172.881C170.862 56.4287 169.223 58.068 169.223 60.0872V214.94C169.223 216.959 170.862 218.598 172.881 218.598H257.024C259.044 218.598 260.683 216.959 260.683 214.94V60.0872Z" fill="url(#paint0_linear_2716_90126)"/>
<path fill-rule="evenodd" clip-rule="evenodd" d="M283.846 59.4225C283.846 57.7705 282.505 56.4292 280.853 56.4292H263.675C262.023 56.4292 260.682 57.7705 260.682 59.4225V215.605C260.682 217.257 262.023 218.598 263.675 218.598H280.853C282.505 218.598 283.846 217.257 283.846 215.605V59.4225Z" fill="url(#paint1_linear_2716_90126)"/>
<path fill-rule="evenodd" clip-rule="evenodd" d="M253.376 63.7838C253.376 62.9756 252.719 62.3193 251.911 62.3193H177.996C177.188 62.3193 176.531 62.9756 176.531 63.7838V75.4992C176.531 76.3074 177.187 76.9637 177.996 76.9637H251.911C252.719 76.9637 253.376 76.3074 253.376 75.4992V63.7838Z" fill="#2C4087"/>
<path fill-rule="evenodd" clip-rule="evenodd" d="M250.52 66.2471C250.52 65.4443 249.868 64.7925 249.065 64.7925H210.324C209.521 64.7925 208.869 65.4443 208.869 66.2471V73.0352C208.869 73.838 209.521 74.4898 210.324 74.4898H249.065C249.868 74.4898 250.52 73.838 250.52 73.0352V66.2471Z" fill="#C2D1F8"/>
<path fill-rule="evenodd" clip-rule="evenodd" d="M197.632 66.4168C197.632 66.1062 197.38 65.854 197.069 65.854H194.443C194.132 65.854 193.88 66.1061 193.88 66.4168V72.8663C193.88 73.177 194.132 73.4291 194.443 73.4291H197.069C197.38 73.4291 197.632 73.177 197.632 72.8663V66.4168Z" fill="#69CCF1"/>
<path fill-rule="evenodd" clip-rule="evenodd" d="M204.879 66.4168C204.879 66.1062 204.627 65.854 204.317 65.854H201.69C201.379 65.854 201.127 66.1061 201.127 66.4168V72.8663C201.127 73.177 201.379 73.4291 201.69 73.4291H204.317C204.627 73.4291 204.879 73.177 204.879 72.8663V66.4168Z" fill="#EE94F9"/>
<path fill-rule="evenodd" clip-rule="evenodd" d="M190.386 66.4168C190.386 66.1062 190.134 65.854 189.823 65.854H187.197C186.886 65.854 186.634 66.1061 186.634 66.4168V72.8663C186.634 73.177 186.886 73.4291 187.197 73.4291H189.823C190.134 73.4291 190.386 73.177 190.386 72.8663V66.4168Z" fill="#EE94F9"/>
<path fill-rule="evenodd" clip-rule="evenodd" d="M183.139 66.4168C183.139 66.1062 182.887 65.854 182.576 65.854H179.95C179.639 65.854 179.387 66.1061 179.387 66.4168V72.8663C179.387 73.177 179.639 73.4291 179.95 73.4291H182.576C182.887 73.4291 183.139 73.177 183.139 72.8663V66.4168Z" fill="#69CCF1"/>
<path fill-rule="evenodd" clip-rule="evenodd" d="M253.376 82.6857C253.376 81.8773 252.719 81.2212 251.911 81.2212H177.996C177.188 81.2212 176.531 81.8773 176.531 82.6857V94.401C176.531 95.2093 177.187 95.8654 177.996 95.8654H251.911C252.719 95.8654 253.376 95.2093 253.376 94.401V82.6857Z" fill="#2C4087"/>
<path fill-rule="evenodd" clip-rule="evenodd" d="M250.52 85.149C250.52 84.3461 249.868 83.6943 249.065 83.6943H210.324C209.521 83.6943 208.869 84.3461 208.869 85.149V91.9371C208.869 92.7398 209.521 93.3916 210.324 93.3916H249.065C249.868 93.3916 250.52 92.7398 250.52 91.9371V85.149Z" fill="#C2D1F8"/>
<path fill-rule="evenodd" clip-rule="evenodd" d="M197.632 85.3188C197.632 85.0081 197.38 84.7559 197.069 84.7559H194.443C194.132 84.7559 193.88 85.0081 193.88 85.3188V91.7682C193.88 92.0788 194.132 92.3311 194.443 92.3311H197.069C197.38 92.3311 197.632 92.0788 197.632 91.7682V85.3188Z" fill="#69CCF1"/>
<path fill-rule="evenodd" clip-rule="evenodd" d="M204.879 85.3188C204.879 85.0081 204.627 84.7559 204.317 84.7559H201.69C201.379 84.7559 201.127 85.0081 201.127 85.3188V91.7682C201.127 92.0788 201.379 92.3311 201.69 92.3311H204.317C204.627 92.3311 204.879 92.0788 204.879 91.7682V85.3188Z" fill="#EE94F9"/>
<path fill-rule="evenodd" clip-rule="evenodd" d="M190.386 85.3188C190.386 85.0081 190.134 84.7559 189.823 84.7559H187.197C186.886 84.7559 186.634 85.0081 186.634 85.3188V91.7682C186.634 92.0788 186.886 92.3311 187.197 92.3311H189.823C190.134 92.3311 190.386 92.0788 190.386 91.7682V85.3188Z" fill="#EE94F9"/>
<path fill-rule="evenodd" clip-rule="evenodd" d="M183.139 85.3188C183.139 85.0081 182.887 84.7559 182.576 84.7559H179.95C179.639 84.7559 179.387 85.0081 179.387 85.3188V91.7682C179.387 92.0788 179.639 92.3311 179.95 92.3311H182.576C182.887 92.3311 183.139 92.0788 183.139 91.7682V85.3188Z" fill="#69CCF1"/>
<path fill-rule="evenodd" clip-rule="evenodd" d="M253.376 101.587C253.376 100.779 252.719 100.123 251.911 100.123H177.996C177.188 100.123 176.531 100.779 176.531 101.587V113.303C176.531 114.111 177.187 114.767 177.996 114.767H251.911C252.719 114.767 253.376 114.111 253.376 113.303V101.587Z" fill="#2C4087"/>
<path fill-rule="evenodd" clip-rule="evenodd" d="M250.52 104.051C250.52 103.248 249.868 102.596 249.065 102.596H210.324C209.521 102.596 208.869 103.248 208.869 104.051V110.839C208.869 111.642 209.521 112.293 210.324 112.293H249.065C249.868 112.293 250.52 111.642 250.52 110.839V104.051Z" fill="#C2D1F8"/>
<path fill-rule="evenodd" clip-rule="evenodd" d="M197.632 104.221C197.632 103.91 197.38 103.658 197.069 103.658H194.443C194.132 103.658 193.88 103.91 193.88 104.221V110.67C193.88 110.981 194.132 111.233 194.443 111.233H197.069C197.38 111.233 197.632 110.981 197.632 110.67V104.221Z" fill="#69CCF1"/>
<path fill-rule="evenodd" clip-rule="evenodd" d="M204.879 104.221C204.879 103.91 204.627 103.658 204.317 103.658H201.69C201.379 103.658 201.127 103.91 201.127 104.221V110.67C201.127 110.981 201.379 111.233 201.69 111.233H204.317C204.627 111.233 204.879 110.981 204.879 110.67V104.221Z" fill="#EE94F9"/>
<path fill-rule="evenodd" clip-rule="evenodd" d="M190.386 104.221C190.386 103.91 190.134 103.658 189.823 103.658H187.197C186.886 103.658 186.634 103.91 186.634 104.221V110.67C186.634 110.981 186.886 111.233 187.197 111.233H189.823C190.134 111.233 190.386 110.981 190.386 110.67V104.221Z" fill="#EE94F9"/>
<path fill-rule="evenodd" clip-rule="evenodd" d="M183.139 104.221C183.139 103.91 182.887 103.658 182.576 103.658H179.95C179.639 103.658 179.387 103.91 179.387 104.221V110.67C179.387 110.981 179.639 111.233 179.95 111.233H182.576C182.887 111.233 183.139 110.981 183.139 110.67V104.221Z" fill="#69CCF1"/>
<path fill-rule="evenodd" clip-rule="evenodd" d="M253.376 120.489C253.376 119.681 252.719 119.024 251.911 119.024H177.996C177.188 119.024 176.531 119.681 176.531 120.489V132.204C176.531 133.012 177.187 133.669 177.996 133.669H251.911C252.719 133.669 253.376 133.012 253.376 132.204V120.489Z" fill="#2C4087"/>
<path fill-rule="evenodd" clip-rule="evenodd" d="M250.52 122.952C250.52 122.149 249.868 121.498 249.065 121.498H210.324C209.521 121.498 208.869 122.149 208.869 122.952V129.74C208.869 130.543 209.521 131.195 210.324 131.195H249.065C249.868 131.195 250.52 130.543 250.52 129.74V122.952Z" fill="#C2D1F8"/>
<path fill-rule="evenodd" clip-rule="evenodd" d="M197.632 123.122C197.632 122.811 197.38 122.559 197.069 122.559H194.443C194.132 122.559 193.88 122.811 193.88 123.122V129.571C193.88 129.882 194.132 130.134 194.443 130.134H197.069C197.38 130.134 197.632 129.882 197.632 129.571V123.122Z" fill="#69CCF1"/>
<path fill-rule="evenodd" clip-rule="evenodd" d="M204.879 123.122C204.879 122.811 204.627 122.559 204.317 122.559H201.69C201.379 122.559 201.127 122.811 201.127 123.122V129.571C201.127 129.882 201.379 130.134 201.69 130.134H204.317C204.627 130.134 204.879 129.882 204.879 129.571V123.122Z" fill="#EE94F9"/>
<path fill-rule="evenodd" clip-rule="evenodd" d="M190.386 123.122C190.386 122.811 190.134 122.559 189.823 122.559H187.197C186.886 122.559 186.634 122.811 186.634 123.122V129.571C186.634 129.882 186.886 130.134 187.197 130.134H189.823C190.134 130.134 190.386 129.882 190.386 129.571V123.122Z" fill="#EE94F9"/>
<path fill-rule="evenodd" clip-rule="evenodd" d="M183.139 123.122C183.139 122.811 182.887 122.559 182.576 122.559H179.95C179.639 122.559 179.387 122.811 179.387 123.122V129.571C179.387 129.882 179.639 130.134 179.95 130.134H182.576C182.887 130.134 183.139 129.882 183.139 129.571V123.122Z" fill="#69CCF1"/>
<path fill-rule="evenodd" clip-rule="evenodd" d="M253.376 139.39C253.376 138.582 252.719 137.926 251.911 137.926H177.996C177.188 137.926 176.531 138.582 176.531 139.39V151.106C176.531 151.914 177.187 152.57 177.996 152.57H251.911C252.719 152.57 253.376 151.914 253.376 151.106V139.39Z" fill="#2C4087"/>
<path fill-rule="evenodd" clip-rule="evenodd" d="M250.52 141.854C250.52 141.051 249.868 140.399 249.065 140.399H210.324C209.521 140.399 208.869 141.051 208.869 141.854V148.642C208.869 149.445 209.521 150.097 210.324 150.097H249.065C249.868 150.097 250.52 149.445 250.52 148.642V141.854Z" fill="#C2D1F8"/>
<path fill-rule="evenodd" clip-rule="evenodd" d="M197.632 142.023C197.632 141.713 197.38 141.46 197.069 141.46H194.443C194.132 141.46 193.88 141.713 193.88 142.023V148.473C193.88 148.783 194.132 149.036 194.443 149.036H197.069C197.38 149.036 197.632 148.783 197.632 148.473V142.023Z" fill="#69CCF1"/>
<path fill-rule="evenodd" clip-rule="evenodd" d="M204.879 142.023C204.879 141.713 204.627 141.46 204.317 141.46H201.69C201.379 141.46 201.127 141.713 201.127 142.023V148.473C201.127 148.783 201.379 149.036 201.69 149.036H204.317C204.627 149.036 204.879 148.783 204.879 148.473V142.023Z" fill="#EE94F9"/>
<path fill-rule="evenodd" clip-rule="evenodd" d="M190.386 142.023C190.386 141.713 190.134 141.46 189.823 141.46H187.197C186.886 141.46 186.634 141.713 186.634 142.023V148.473C186.634 148.783 186.886 149.036 187.197 149.036H189.823C190.134 149.036 190.386 148.783 190.386 148.473V142.023Z" fill="#EE94F9"/>
<path fill-rule="evenodd" clip-rule="evenodd" d="M183.139 142.023C183.139 141.713 182.887 141.46 182.576 141.46H179.95C179.639 141.46 179.387 141.713 179.387 142.023V148.473C179.387 148.783 179.639 149.036 179.95 149.036H182.576C182.887 149.036 183.139 148.783 183.139 148.473V142.023Z" fill="#69CCF1"/>
<path fill-rule="evenodd" clip-rule="evenodd" d="M253.376 158.292C253.376 157.484 252.719 156.828 251.911 156.828H177.996C177.188 156.828 176.531 157.484 176.531 158.292V170.007C176.531 170.816 177.187 171.472 177.996 171.472H251.911C252.719 171.472 253.376 170.816 253.376 170.007V158.292Z" fill="#2C4087"/>
<path fill-rule="evenodd" clip-rule="evenodd" d="M250.52 160.756C250.52 159.953 249.868 159.301 249.065 159.301H210.324C209.521 159.301 208.869 159.953 208.869 160.756V167.544C208.869 168.347 209.521 168.999 210.324 168.999H249.065C249.868 168.999 250.52 168.347 250.52 167.544V160.756Z" fill="#C2D1F8"/>
<path fill-rule="evenodd" clip-rule="evenodd" d="M197.632 160.925C197.632 160.614 197.38 160.362 197.069 160.362H194.443C194.132 160.362 193.88 160.614 193.88 160.925V167.375C193.88 167.685 194.132 167.937 194.443 167.937H197.069C197.38 167.937 197.632 167.685 197.632 167.375V160.925Z" fill="#69CCF1"/>
<path fill-rule="evenodd" clip-rule="evenodd" d="M204.879 160.925C204.879 160.614 204.627 160.362 204.317 160.362H201.69C201.379 160.362 201.127 160.614 201.127 160.925V167.375C201.127 167.685 201.379 167.937 201.69 167.937H204.317C204.627 167.937 204.879 167.685 204.879 167.375V160.925Z" fill="#EE94F9"/>
<path fill-rule="evenodd" clip-rule="evenodd" d="M190.386 160.925C190.386 160.614 190.134 160.362 189.823 160.362H187.197C186.886 160.362 186.634 160.614 186.634 160.925V167.375C186.634 167.685 186.886 167.937 187.197 167.937H189.823C190.134 167.937 190.386 167.685 190.386 167.375V160.925Z" fill="#EE94F9"/>
<path fill-rule="evenodd" clip-rule="evenodd" d="M183.139 160.925C183.139 160.614 182.887 160.362 182.576 160.362H179.95C179.639 160.362 179.387 160.614 179.387 160.925V167.375C179.387 167.685 179.639 167.937 179.95 167.937H182.576C182.887 167.937 183.139 167.685 183.139 167.375V160.925Z" fill="#69CCF1"/>
<path fill-rule="evenodd" clip-rule="evenodd" d="M253.376 177.193C253.376 176.385 252.719 175.729 251.911 175.729H177.996C177.188 175.729 176.531 176.385 176.531 177.193V188.909C176.531 189.717 177.187 190.373 177.996 190.373H251.911C252.719 190.373 253.376 189.717 253.376 188.909V177.193Z" fill="#2C4087"/>
<path fill-rule="evenodd" clip-rule="evenodd" d="M250.52 179.658C250.52 178.855 249.868 178.204 249.065 178.204H210.324C209.521 178.204 208.869 178.855 208.869 179.658V186.446C208.869 187.249 209.521 187.901 210.324 187.901H249.065C249.868 187.901 250.52 187.249 250.52 186.446V179.658Z" fill="#C2D1F8"/>
<path fill-rule="evenodd" clip-rule="evenodd" d="M197.632 179.828C197.632 179.517 197.38 179.265 197.069 179.265H194.443C194.132 179.265 193.88 179.517 193.88 179.828V186.277C193.88 186.588 194.132 186.84 194.443 186.84H197.069C197.38 186.84 197.632 186.588 197.632 186.277V179.828Z" fill="#69CCF1"/>
<path fill-rule="evenodd" clip-rule="evenodd" d="M204.879 179.828C204.879 179.517 204.627 179.265 204.317 179.265H201.69C201.379 179.265 201.127 179.517 201.127 179.828V186.277C201.127 186.588 201.379 186.84 201.69 186.84H204.317C204.627 186.84 204.879 186.588 204.879 186.277V179.828Z" fill="#EE94F9"/>
<path fill-rule="evenodd" clip-rule="evenodd" d="M190.386 179.828C190.386 179.517 190.134 179.265 189.823 179.265H187.197C186.886 179.265 186.634 179.517 186.634 179.828V186.277C186.634 186.588 186.886 186.84 187.197 186.84H189.823C190.134 186.84 190.386 186.588 190.386 186.277V179.828Z" fill="#EE94F9"/>
<path fill-rule="evenodd" clip-rule="evenodd" d="M183.139 179.828C183.139 179.517 182.887 179.265 182.576 179.265H179.95C179.639 179.265 179.387 179.517 179.387 179.828V186.277C179.387 186.588 179.639 186.84 179.95 186.84H182.576C182.887 186.84 183.139 186.588 183.139 186.277V179.828Z" fill="#69CCF1"/>
<path fill-rule="evenodd" clip-rule="evenodd" d="M253.376 196.096C253.376 195.288 252.719 194.632 251.911 194.632H177.996C177.188 194.632 176.531 195.288 176.531 196.096V207.812C176.531 208.62 177.187 209.276 177.996 209.276H251.911C252.719 209.276 253.376 208.62 253.376 207.812V196.096Z" fill="#2C4087"/>
<path fill-rule="evenodd" clip-rule="evenodd" d="M250.52 198.56C250.52 197.757 249.868 197.105 249.065 197.105H210.324C209.521 197.105 208.869 197.757 208.869 198.56V205.348C208.869 206.15 209.521 206.802 210.324 206.802H249.065C249.868 206.802 250.52 206.15 250.52 205.348V198.56Z" fill="#C2D1F8"/>
<path fill-rule="evenodd" clip-rule="evenodd" d="M197.632 198.728C197.632 198.418 197.38 198.166 197.069 198.166H194.443C194.132 198.166 193.88 198.418 193.88 198.728V205.178C193.88 205.488 194.132 205.741 194.443 205.741H197.069C197.38 205.741 197.632 205.488 197.632 205.178V198.728Z" fill="#69CCF1"/>
<path fill-rule="evenodd" clip-rule="evenodd" d="M204.879 198.728C204.879 198.418 204.627 198.166 204.317 198.166H201.69C201.379 198.166 201.127 198.418 201.127 198.728V205.178C201.127 205.488 201.379 205.741 201.69 205.741H204.317C204.627 205.741 204.879 205.488 204.879 205.178V198.728Z" fill="#EE94F9"/>
<path fill-rule="evenodd" clip-rule="evenodd" d="M190.386 198.728C190.386 198.418 190.134 198.166 189.823 198.166H187.197C186.886 198.166 186.634 198.418 186.634 198.728V205.178C186.634 205.488 186.886 205.741 187.197 205.741H189.823C190.134 205.741 190.386 205.488 190.386 205.178V198.728Z" fill="#EE94F9"/>
<path fill-rule="evenodd" clip-rule="evenodd" d="M183.139 198.728C183.139 198.418 182.887 198.166 182.576 198.166H179.95C179.639 198.166 179.387 198.418 179.387 198.728V205.178C179.387 205.488 179.639 205.741 179.95 205.741H182.576C182.887 205.741 183.139 205.488 183.139 205.178V198.728Z" fill="#69CCF1"/>
<path fill-rule="evenodd" clip-rule="evenodd" d="M204.456 110.484C204.456 109.909 203.989 109.442 203.414 109.442H36.962C36.3869 109.442 35.9199 109.909 35.9199 110.484V212.599C35.9199 213.174 36.3869 213.641 36.962 213.641H203.414C203.989 213.641 204.456 213.174 204.456 212.599V110.484Z" fill="#1D387D"/>
<path fill-rule="evenodd" clip-rule="evenodd" d="M202.714 112.303C202.714 111.796 202.302 111.384 201.795 111.384H38.5791C38.0719 111.384 37.6602 111.796 37.6602 112.303V202.366C37.6602 202.874 38.0719 203.285 38.5791 203.285H201.795C202.302 203.285 202.714 202.874 202.714 202.366V112.303Z" fill="#F8FBFF"/>
<path d="M114.395 179.892C115.585 179.892 116.149 179.297 116.149 178.602C116.149 177.01 113.576 177.611 113.576 176.687C113.576 176.358 113.849 176.097 114.519 176.097C114.897 176.097 115.325 176.209 115.715 176.439L115.969 175.812C115.591 175.564 115.046 175.428 114.525 175.428C113.334 175.428 112.777 176.023 112.777 176.724C112.777 178.335 115.356 177.722 115.356 178.658C115.356 178.981 115.071 179.223 114.395 179.223C113.861 179.223 113.309 179.024 112.963 178.745L112.684 179.371C113.043 179.681 113.718 179.892 114.395 179.892ZM155.706 179.892C157.051 179.892 158.043 178.95 158.043 177.66C158.043 176.37 157.051 175.428 155.706 175.428C154.36 175.428 153.369 176.376 153.369 177.66C153.369 178.944 154.36 179.892 155.706 179.892ZM78.54 179.83H79.3453V175.49H78.54V179.83ZM162.606 179.83L161.608 178.404C162.197 178.175 162.532 177.691 162.532 177.034C162.532 176.072 161.825 175.49 160.684 175.49H158.899V179.83H159.704V178.565H160.684C160.74 178.565 160.796 178.565 160.852 178.559L161.739 179.83H162.606ZM83.5745 175.49V178.429L81.1806 175.49H80.5178V179.83H81.3169V176.891L83.7107 179.83H84.3735V175.49H83.5745ZM101.015 175.49V178.429L98.6214 175.49H97.9587V179.83H98.7577V176.891L101.151 179.83H101.814V175.49H101.015ZM128.797 175.49L127.34 178.838L125.896 175.49H125.022L126.919 179.83H127.712L129.603 175.49H128.797ZM86.4203 179.83H87.2255V176.171H88.6639V175.49H84.9819V176.171H86.4203L86.4203 179.83ZM97.1333 179.83L96.1358 178.404C96.7243 178.175 97.0589 177.691 97.0589 177.034C97.0589 176.072 96.3527 175.49 95.2116 175.49H93.4264V179.83H94.2317V178.565H95.2116C95.2675 178.565 95.3233 178.565 95.3791 178.559L96.266 179.83H97.1333ZM106.229 179.83H107.072L105.113 175.49H104.32L102.367 179.83H103.198L103.625 178.825H105.795L106.229 179.83ZM152.853 179.83L151.856 178.404C152.444 178.175 152.779 177.691 152.779 177.034C152.779 176.072 152.073 175.49 150.932 175.49H149.146V179.83H149.952V178.565H150.932C150.987 178.565 151.043 178.565 151.099 178.559L151.986 179.83H152.853ZM124.81 179.83L123.813 178.404C124.401 178.175 124.736 177.691 124.736 177.034C124.736 176.072 124.03 175.49 122.889 175.49H121.103V179.83H121.909V178.565H122.889C122.944 178.565 123 178.565 123.056 178.559L123.943 179.83H124.81ZM137.923 179.83L136.926 178.404C137.515 178.175 137.849 177.691 137.849 177.034C137.849 176.072 137.143 175.49 136.002 175.49H134.217V179.83H135.022V178.565H136.002C136.058 178.565 136.113 178.565 136.169 178.559L137.056 179.83H137.923ZM148.321 179.83L147.323 178.404C147.912 178.175 148.247 177.691 148.247 177.034C148.247 176.072 147.54 175.49 146.399 175.49H144.614V179.83H145.419V178.565H146.399C146.455 178.565 146.511 178.565 146.567 178.559L147.454 179.83H148.321ZM107.625 179.83H110.699V179.148H108.43V175.49H107.624L107.625 179.83ZM117.755 179.155V177.957H119.85V177.294H117.755V176.165H120.117V175.49H116.949V179.83H120.204V179.155H117.755ZM90.0776 179.155V177.957H92.1732V177.294H90.0776V176.165H92.4399V175.49H89.2724V179.83H92.5266V179.155H90.0776ZM130.868 179.155V177.957H132.963V177.294H130.868V176.165H133.23V175.49H130.063V179.83H133.317V179.155H130.868ZM141.265 179.155V177.957H143.361V177.294H141.265V176.165H143.627V175.49H140.46V179.83H143.714V179.155H141.265ZM155.706 179.186C154.831 179.186 154.18 178.547 154.18 177.66C154.18 176.773 154.831 176.134 155.706 176.134C156.58 176.134 157.231 176.773 157.231 177.66C157.231 178.547 156.58 179.186 155.706 179.186ZM103.898 178.193L104.71 176.295L105.528 178.193H103.898ZM96.2474 177.034C96.2474 177.58 95.8815 177.902 95.1744 177.902H94.2317V176.171H95.1744C95.8815 176.171 96.2474 176.488 96.2474 177.034ZM151.967 177.034C151.967 177.58 151.601 177.902 150.894 177.902H149.952V176.171H150.894C151.601 176.171 151.967 176.488 151.967 177.034ZM161.72 177.034C161.72 177.58 161.354 177.902 160.647 177.902H159.704V176.171H160.647C161.354 176.171 161.72 176.488 161.72 177.034ZM137.038 177.034C137.038 177.58 136.672 177.902 135.965 177.902H135.022V176.171H135.965C136.672 176.171 137.038 176.488 137.038 177.034ZM147.435 177.034C147.435 177.58 147.069 177.902 146.362 177.902H145.419V176.171H146.362C147.069 176.171 147.435 176.488 147.435 177.034ZM123.925 177.034C123.925 177.58 123.559 177.902 122.852 177.902H121.909V176.171H122.852C123.559 176.171 123.925 176.488 123.925 177.034Z" fill="#768BB3"/>
<path d="M88.9802 149.397H85.4546L86.3133 140.713H100.367V136.786H82.5166L80.8443 153.323H88.0309C95.3533 153.323 97.6132 155.539 97.6132 159.112C97.6132 162.549 94.9013 164.764 90.1102 164.764C86.2682 164.764 82.7426 163.362 80.6182 161.373L78.5391 164.945C81.2511 167.337 85.6806 168.781 90.1553 168.781C98.2452 168.781 102.128 164.403 102.128 158.931C102.128 153.323 98.4259 149.397 88.9802 149.397ZM118.809 168.781C126.179 168.781 131.688 162.911 131.688 152.603C131.688 142.295 126.179 136.424 118.809 136.424C111.394 136.424 105.885 142.295 105.885 152.603C105.885 162.911 111.394 168.781 118.809 168.781ZM148.957 168.781C156.327 168.781 161.836 162.911 161.836 152.603C161.836 142.295 156.327 136.424 148.957 136.424C141.542 136.424 136.033 142.295 136.033 152.603C136.033 162.911 141.542 168.781 148.957 168.781ZM118.809 164.764C113.835 164.764 110.399 160.696 110.399 152.603C110.399 144.51 113.835 140.441 118.809 140.441C123.737 140.441 127.174 144.51 127.174 152.603C127.174 160.696 123.737 164.764 118.809 164.764ZM148.957 164.764C143.983 164.764 140.547 160.696 140.547 152.603C140.547 144.51 143.983 140.441 148.957 140.441C153.886 140.441 157.322 144.51 157.322 152.603C157.322 160.696 153.886 164.764 148.957 164.764Z" fill="#768BB3"/>
<path fill-rule="evenodd" clip-rule="evenodd" d="M211.967 209.385H28.4082C28.4082 214.473 32.5329 218.598 37.6211 218.598H202.755C207.843 218.598 211.967 214.473 211.967 209.385Z" fill="#182D66"/>
<path fill-rule="evenodd" clip-rule="evenodd" d="M116.73 24.0565C117.237 23.2444 118.127 22.751 119.084 22.751C120.041 22.751 120.931 23.2444 121.438 24.0565C125.397 30.4013 133.364 43.1674 137.513 49.8156C138.047 50.6709 138.075 51.7486 137.585 52.6301C137.096 53.5118 136.168 54.0587 135.159 54.0587H103.009C102 54.0587 101.072 53.5118 100.583 52.6301C100.094 51.7486 100.121 50.6709 100.655 49.8156C104.804 43.1674 112.771 30.4013 116.73 24.0565Z" fill="url(#paint2_linear_2716_90126)"/>
<path fill-rule="evenodd" clip-rule="evenodd" d="M119.084 46.4608C119.735 46.4608 120.263 47.0369 120.263 47.7465C120.263 48.4561 119.735 49.0323 119.084 49.0323C118.433 49.0323 117.905 48.4561 117.905 47.7465C117.905 47.0369 118.433 46.4608 119.084 46.4608ZM120.61 34.3009C120.63 33.8839 120.477 33.4772 120.189 33.1753C119.901 32.8734 119.501 32.7026 119.084 32.7026C118.666 32.7026 118.267 32.8734 117.979 33.1753C117.69 33.4772 117.538 33.8839 117.557 34.3009C117.676 36.8816 117.906 41.8947 118.005 44.0539C118.032 44.6302 118.507 45.0839 119.084 45.0839C119.661 45.0839 120.136 44.6302 120.162 44.0539C120.262 41.8947 120.492 36.8816 120.61 34.3009Z" fill="white"/>
<defs>
<linearGradient id="paint0_linear_2716_90126" x1="214.951" y1="70.7778" x2="214.951" y2="209.275" gradientUnits="userSpaceOnUse">
<stop stop-color="#D5E4FB"/>
<stop offset="1" stop-color="#BCCFF3"/>
</linearGradient>
<linearGradient id="paint1_linear_2716_90126" x1="272.263" y1="70.7781" x2="272.263" y2="209.275" gradientUnits="userSpaceOnUse">
<stop stop-color="#B6CFF6"/>
<stop offset="1" stop-color="#88AFE5"/>
</linearGradient>
<linearGradient id="paint2_linear_2716_90126" x1="119.082" y1="23.4871" x2="119.082" y2="50.092" gradientUnits="userSpaceOnUse">
<stop stop-color="#EE8570"/>
<stop offset="1" stop-color="#F06060"/>
</linearGradient>
</defs>
</svg>
