<svg width="141" height="141" viewBox="0 0 141 141" fill="none" xmlns="http://www.w3.org/2000/svg">
<path d="M132.307 78.4648C130.836 89.6844 126.338 100.292 119.297 109.15C112.255 118.007 102.935 124.781 92.3359 128.745C81.737 132.708 70.2591 133.711 59.1332 131.647C48.0073 129.583 37.6532 124.53 29.1812 117.028C20.7093 109.527 14.4391 99.8606 11.0431 89.0665C7.64722 78.2724 7.25365 66.7574 9.90465 55.7566C12.5556 44.7558 18.1512 34.6842 26.0912 26.6218C34.0312 18.5594 44.0161 12.8105 54.9751 9.99161C85.3548 2.19995 116.802 17.8378 128.412 46.9787" stroke="#BE2D46" stroke-width="15.5833" stroke-linecap="round" stroke-linejoin="round"/>
<path d="M133.829 19.8535V49.6868H103.996" stroke="#BE2D46" stroke-width="11.9333" stroke-linecap="round" stroke-linejoin="round"/>
<path d="M59.9961 98.8481C59.9961 97.5922 60.2435 96.3485 60.7241 95.1882C61.2047 94.0279 61.9092 92.9736 62.7973 92.0855C63.6854 91.1974 64.7397 90.4929 65.9 90.0123C67.0603 89.5317 68.304 89.2843 69.5599 89.2843C70.8159 89.2843 72.0595 89.5317 73.2198 90.0123C74.3802 90.4929 75.4345 91.1974 76.3226 92.0855C77.2106 92.9736 77.9151 94.0279 78.3957 95.1882C78.8764 96.3485 79.1237 97.5922 79.1237 98.8481C79.1237 101.385 78.1161 103.817 76.3226 105.611C74.529 107.404 72.0964 108.412 69.5599 108.412C67.0234 108.412 64.5908 107.404 62.7973 105.611C61.0037 103.817 59.9961 101.385 59.9961 98.8481ZM60.9333 41.4173C60.806 40.2108 60.9337 38.9909 61.3083 37.8369C61.6828 36.6829 62.2958 35.6205 63.1074 34.7187C63.919 33.8169 64.9112 33.0958 66.0195 32.6022C67.1278 32.1086 68.3275 31.8535 69.5408 31.8535C70.7541 31.8535 71.9538 32.1086 73.0621 32.6022C74.1704 33.0958 75.1626 33.8169 75.9742 34.7187C76.7858 35.6205 77.3988 36.6829 77.7733 37.8369C78.1479 38.9909 78.2756 40.2108 78.1482 41.4173L74.8009 74.9577C74.6649 76.258 74.0521 77.4619 73.0807 78.337C72.1093 79.2121 70.8482 79.6963 69.5408 79.6963C68.2334 79.6963 66.9723 79.2121 66.0009 78.337C65.0295 77.4619 64.4167 76.258 64.2807 74.9577L60.9333 41.4173Z" fill="#BE2D46"/>
</svg>
