<svg width="240" height="222" viewBox="0 0 240 222" fill="none" xmlns="http://www.w3.org/2000/svg">
<g clip-path="url(#clip0_2716_90110)">
<path d="M18.0154 80.8494C14.8168 80.8707 11.7457 79.5963 9.50208 77.3164L8.65076 76.2522C6.31726 73.8441 5.08458 70.5775 5.24543 67.2281C5.36177 63.9071 6.9151 60.8005 9.50208 58.7148C73.0089 3.88686 167.026 3.61565 230.848 58.0763C233.33 60.0811 234.871 63.0244 235.105 66.2065C235.358 69.4403 234.282 72.6375 232.125 75.0603L231.146 76.1671C228.935 78.8288 225.667 80.3852 222.207 80.4237C219.262 80.388 216.42 79.3353 214.162 77.4441C160.077 31.6131 80.7245 31.8115 26.8692 77.9123C24.4203 80.0198 21.2384 81.0753 18.0154 80.8494Z" fill="#C7DEF1"/>
<path d="M185.811 117.159C183.195 117.178 180.653 116.29 178.617 114.647C144.437 87.3463 95.9099 87.3463 61.7297 114.647C59.694 116.29 57.152 117.178 54.536 117.159C51.3369 117.14 48.2755 115.854 46.0227 113.583L44.9585 112.519C42.5605 110.094 41.2936 106.773 41.4681 103.367C41.6824 99.9209 43.3352 96.7235 46.0227 94.5557C89.4534 60.0107 150.979 60.0107 194.41 94.5557C197.097 96.7235 198.75 99.9209 198.964 103.367C199.139 106.773 197.872 110.094 195.474 112.519L194.41 113.583C192.136 115.875 189.04 117.163 185.811 117.159Z" fill="#C7DEF1"/>
<path d="M149.416 153.723C147.009 153.713 144.651 153.035 142.606 151.765C128.815 143.421 111.532 143.421 97.7406 151.765C95.695 153.035 93.3375 153.713 90.93 153.723C87.7481 153.788 84.6761 152.559 82.4167 150.318L81.3525 149.254C76.6487 144.516 76.6765 136.861 81.4147 132.158C82.0173 131.559 82.6813 131.026 83.3957 130.567C105.746 116.298 134.345 116.298 156.695 130.567C162.312 134.177 163.939 141.656 160.329 147.273C159.87 147.987 159.337 148.651 158.739 149.254L157.674 150.318C155.415 152.559 152.343 153.788 149.161 153.723H149.416Z" fill="#C7DEF1"/>
<path d="M132.214 199.816C138.863 193.167 138.863 182.386 132.214 175.737C125.564 169.087 114.784 169.087 108.134 175.737C101.485 182.386 101.485 193.167 108.134 199.816C114.784 206.465 125.564 206.465 132.214 199.816Z" fill="#C7DEF1"/>
<path d="M233.231 54.9262C216.434 40.6562 197.098 29.681 176.234 22.5757L185.599 6.40037C186.774 4.3551 186.069 1.74419 184.024 0.568748C181.979 -0.606699 179.368 0.0984411 178.192 2.14371L167.891 19.9791C136.61 11.0127 103.44 11.0127 72.159 19.9791C69.88 20.5561 68.5003 22.8714 69.0774 25.1503C69.0828 25.1719 69.0884 25.1933 69.0942 25.2148C69.7308 27.4778 72.0814 28.7964 74.3444 28.1599C74.3538 28.1572 74.3631 28.1546 74.3725 28.1519C103.418 19.8456 134.182 19.6395 163.337 27.5559L154.653 43.0502C108.368 31.9099 59.5487 43.6399 23.3777 74.592C20.3088 77.3008 15.6716 77.1895 12.7361 74.3366L11.6719 73.2299C10.1784 71.6664 9.39341 69.5577 9.50104 67.3982C9.56013 65.3187 10.4862 63.3586 12.055 61.9923C18.6241 56.3629 25.6109 51.2402 32.9552 46.6683C34.9535 45.4224 35.5633 42.7924 34.3173 40.7941C33.0714 38.7959 30.4414 38.186 28.4432 39.432C20.7304 44.2357 13.4013 49.6294 6.52139 55.5647C3.14714 58.4505 1.13944 62.6203 0.987738 67.0577C0.827902 71.6125 2.5525 76.0317 5.75518 79.2743L6.86192 80.3385C9.81778 83.3177 13.8183 85.0279 18.0144 85.1059C21.9707 85.0808 25.7887 83.6472 28.7837 81.0621C62.1863 52.4047 107.118 41.1167 150.098 50.5844L141.457 66.1212C134.428 64.9115 127.307 64.3134 120.174 64.3335C92.312 64.2915 65.2744 73.7847 43.5543 91.2355C36.478 96.7648 35.2239 106.984 40.7531 114.06C41.1224 114.533 41.5176 114.984 41.9368 115.413L42.9584 116.477C48.7065 122.206 57.8101 122.789 64.2416 117.84C80.0918 105.112 99.8469 98.2415 120.174 98.3867H122.558L112.555 115.796C101.417 116.931 90.701 120.664 81.2682 126.693C73.6509 131.538 71.4032 141.64 76.2478 149.258C76.8827 150.256 77.624 151.182 78.4589 152.021L79.523 153.042C81.9676 155.385 85.1022 156.878 88.462 157.299L54.7493 215.615C53.5738 217.651 54.2714 220.254 56.3073 221.43C56.9594 221.806 57.6996 222.003 58.4526 222C59.9794 222.006 61.3925 221.194 62.1559 219.872L99.5293 155.17L99.9975 154.915C112.395 147.385 127.954 147.385 140.351 154.915C146.827 159.077 155.321 158.212 160.825 152.829L161.889 151.808C165.369 148.311 167.089 143.433 166.572 138.527C166.018 133.599 163.284 129.178 159.122 126.481C148.158 119.59 135.545 115.768 122.6 115.413L131.965 99.1529C148.077 101.248 163.295 107.76 175.936 117.967C178.742 120.202 182.224 121.418 185.812 121.415C190.156 121.41 194.321 119.68 197.39 116.605L198.411 115.541C204.78 109.209 204.809 98.9136 198.477 92.5454C198.014 92.0794 197.523 91.642 197.007 91.2355C183.267 80.1882 167.29 72.2582 150.184 67.9942L158.952 52.7979C178.09 58.2741 195.848 67.7479 211.054 80.5939C217.803 86.464 228.022 85.7992 233.954 79.104L234.934 77.9547C237.821 74.6654 239.276 70.3601 238.977 65.9935C238.627 61.682 236.556 57.6929 233.231 54.9262ZM85.5249 147.125L84.5033 146.061C82.8075 144.412 81.974 142.069 82.2473 139.719C82.5073 137.361 83.8222 135.247 85.8229 133.972C92.3383 129.859 99.5516 126.974 107.106 125.459L93.5274 148.956C90.7282 149.904 87.6334 149.197 85.5249 147.125ZM120.174 123.927C132.348 123.932 144.267 127.417 154.525 133.972C156.526 135.247 157.841 137.361 158.101 139.719C158.374 142.069 157.541 144.412 155.845 146.061L154.823 147.125C152.09 149.695 147.948 150.047 144.82 147.977C133.322 140.989 119.404 139.195 106.51 143.039L117.663 123.927H120.174ZM120.174 89.8734C97.9898 89.8424 76.4527 97.3466 59.0911 111.157C56.0195 113.493 51.6863 113.164 49.0028 110.39L47.8109 109.539C46.2437 107.965 45.4229 105.797 45.5549 103.58C45.6852 101.349 46.752 99.2776 48.492 97.8759C68.8103 81.5623 94.1173 72.7259 120.174 72.8468C125.687 72.8704 131.192 73.2828 136.647 74.0812L127.368 90.1713C124.984 89.8734 122.6 89.8734 120.174 89.8734ZM191.728 97.8759C193.468 99.2776 194.535 101.349 194.666 103.58C194.798 105.797 193.977 107.965 192.41 109.539L191.345 110.561C188.653 113.316 184.334 113.644 181.257 111.327C168.298 100.965 152.919 94.0657 136.562 91.2781L145.714 75.7413C162.533 79.5324 178.269 87.1018 191.728 97.8759ZM228.378 72.3359L227.399 73.4427C224.525 76.6508 219.6 76.9361 216.374 74.0812C200.79 60.9272 182.684 51.0923 163.166 45.1785L171.68 30.1099C192.137 36.8139 211.092 47.4408 227.484 61.3964C229.021 62.7019 229.958 64.5772 230.081 66.5895C230.322 68.6571 229.707 70.7335 228.378 72.3359Z" fill="#102D5F"/>
<path d="M47.8138 37.8995C48.4433 37.895 49.0656 37.7647 49.6441 37.5164C52.3684 36.2394 55.1352 35.0049 57.9446 33.8557C60.1935 33.1707 61.4613 30.7924 60.7764 28.5435C60.0915 26.2946 57.7132 25.0267 55.4643 25.7117C55.2033 25.7912 54.9505 25.8955 54.7095 26.0234C51.7725 27.2153 48.8779 28.4923 45.9834 29.8544C43.8676 30.879 42.983 33.4249 44.0076 35.5407C44.7149 37.0012 46.1911 37.9325 47.8138 37.942L47.8138 37.8995Z" fill="#102D5F"/>
<path d="M120.175 166.493C108.42 166.493 98.8916 176.022 98.8916 187.776C98.8916 199.531 108.42 209.06 120.175 209.06C131.929 209.06 141.458 199.531 141.458 187.776C141.458 176.022 131.929 166.493 120.175 166.493ZM120.175 200.546C113.122 200.546 107.405 194.829 107.405 187.776C107.405 180.724 113.122 175.006 120.175 175.006C127.228 175.006 132.945 180.724 132.945 187.776C132.945 194.829 127.228 200.546 120.175 200.546Z" fill="#102D5F"/>
</g>
<defs>
<clipPath id="clip0_2716_90110">
<rect width="238.038" height="222" fill="white" transform="translate(0.980469)"/>
</clipPath>
</defs>
</svg>
