<svg width="156" height="156" viewBox="0 0 156 156" fill="none" xmlns="http://www.w3.org/2000/svg">
<path fill-rule="evenodd" clip-rule="evenodd" d="M155.916 77.9167C155.916 120.95 121.033 155.833 77.9997 155.833C34.9663 155.833 0.0830078 120.95 0.0830078 77.9167C0.0830078 34.8833 34.9663 0 77.9997 0C121.033 0 155.916 34.8833 155.916 77.9167ZM47.6979 108.218C46.9675 107.488 46.5572 106.497 46.5572 105.464C46.5572 104.431 46.9675 103.44 47.6979 102.71L72.491 77.9167L47.6979 53.1236C46.9882 52.3888 46.5955 51.4047 46.6044 50.3832C46.6133 49.3618 47.023 48.3847 47.7453 47.6623C48.4677 46.94 49.4448 46.5303 50.4663 46.5214C51.4877 46.5125 52.4718 46.9052 53.2066 47.6149L77.9997 72.408L102.793 47.6149C103.528 46.9052 104.512 46.5125 105.533 46.5214C106.555 46.5303 107.532 46.94 108.254 47.6623C108.976 48.3847 109.386 49.3618 109.395 50.3832C109.404 51.4047 109.011 52.3888 108.301 53.1236L83.5084 77.9167L108.301 102.71C109.011 103.445 109.404 104.429 109.395 105.45C109.386 106.472 108.976 107.449 108.254 108.171C107.532 108.893 106.555 109.303 105.533 109.312C104.512 109.321 103.528 108.928 102.793 108.218L77.9997 83.4254L53.2066 108.218C52.476 108.949 51.4853 109.359 50.4522 109.359C49.4192 109.359 48.4285 108.949 47.6979 108.218Z" fill="#BE2D46"/>
<path d="M96.2125 75.6716C94.6466 77.233 94.6448 79.7688 96.2085 81.3324L116.846 101.97C118.408 103.532 118.408 106.065 116.846 107.627L106.709 117.764C105.147 119.326 102.614 119.326 101.052 117.764L80.4105 97.1224C78.8484 95.5603 76.3157 95.5603 74.7536 97.1224L54.0375 117.839C52.4754 119.401 49.9427 119.401 48.3806 117.839L38.2435 107.701C36.6814 106.139 36.6814 103.607 38.2435 102.045L58.9596 81.3284C60.5217 79.7663 60.5217 77.2337 58.9596 75.6716L38.2435 54.9554C36.6814 53.3933 36.6814 50.8607 38.2435 49.2986L48.3806 39.1614C49.9427 37.5993 52.4754 37.5993 54.0375 39.1614L74.7576 59.8816C76.3181 61.4421 78.8477 61.4439 80.4105 59.8856L101.127 39.2279C102.689 37.6696 105.219 37.6714 106.779 39.2319L116.917 49.3691C118.48 50.9327 118.478 53.4685 116.913 55.0299L96.2125 75.6716Z" fill="#F7F7F7"/>
</svg>
