<svg width="24" height="24" viewBox="0 0 24 24" fill="none" xmlns="http://www.w3.org/2000/svg">
<path d="M3.60156 4.79998C3.60156 4.48172 3.72799 4.17649 3.95303 3.95145C4.17808 3.7264 4.4833 3.59998 4.80156 3.59998H19.2016C19.5198 3.59998 19.825 3.7264 20.0501 3.95145C20.2751 4.17649 20.4016 4.48172 20.4016 4.79998V7.19998C20.4016 7.51824 20.2751 7.82346 20.0501 8.0485C19.825 8.27355 19.5198 8.39998 19.2016 8.39998H4.80156C4.4833 8.39998 4.17808 8.27355 3.95303 8.0485C3.72799 7.82346 3.60156 7.51824 3.60156 7.19998V4.79998ZM3.60156 12C3.60156 11.6817 3.72799 11.3765 3.95303 11.1514C4.17808 10.9264 4.4833 10.8 4.80156 10.8H12.0016C12.3198 10.8 12.625 10.9264 12.8501 11.1514C13.0751 11.3765 13.2016 11.6817 13.2016 12V19.2C13.2016 19.5182 13.0751 19.8235 12.8501 20.0485C12.625 20.2735 12.3198 20.4 12.0016 20.4H4.80156C4.4833 20.4 4.17808 20.2735 3.95303 20.0485C3.72799 19.8235 3.60156 19.5182 3.60156 19.2V12ZM16.8016 10.8C16.4833 10.8 16.1781 10.9264 15.953 11.1514C15.728 11.3765 15.6016 11.6817 15.6016 12V19.2C15.6016 19.5182 15.728 19.8235 15.953 20.0485C16.1781 20.2735 16.4833 20.4 16.8016 20.4H19.2016C19.5198 20.4 19.825 20.2735 20.0501 20.0485C20.2751 19.8235 20.4016 19.5182 20.4016 19.2V12C20.4016 11.6817 20.2751 11.3765 20.0501 11.1514C19.825 10.9264 19.5198 10.8 19.2016 10.8H16.8016Z" fill="black"/>
</svg>
