<svg width="24" height="25" viewBox="0 0 24 25" fill="none" xmlns="http://www.w3.org/2000/svg">
<path d="M6.70711 5.79289C6.31658 5.40237 5.68342 5.40237 5.29289 5.79289C4.90237 6.18342 4.90237 6.81658 5.29289 7.20711L10.5858 12.5L5.29289 17.7929C4.90237 18.1834 4.90237 18.8166 5.29289 19.2071C5.68342 19.5976 6.31658 19.5976 6.70711 19.2071L12 13.9142L17.2929 19.2071C17.6834 19.5976 18.3166 19.5976 18.7071 19.2071C19.0976 18.8166 19.0976 18.1834 18.7071 17.7929L13.4142 12.5L18.7071 7.20711C19.0976 6.81658 19.0976 6.18342 18.7071 5.79289C18.3166 5.40237 17.6834 5.40237 17.2929 5.79289L12 11.0858L6.70711 5.79289Z" fill="#BE2D46"/>
</svg>
