<svg width="12" height="14" viewBox="0 0 12 14" fill="none" xmlns="http://www.w3.org/2000/svg">
<g id="ic_close_large">
<path id="icon" d="M3.35355 3.36666C3.15829 3.15512 2.84171 3.15512 2.64645 3.36666C2.45118 3.57819 2.45118 3.92116 2.64645 4.13269L5.29289 6.99968L2.64645 9.86666C2.45118 10.0782 2.45118 10.4212 2.64645 10.6327C2.84171 10.8442 3.15829 10.8442 3.35355 10.6327L6 7.76571L8.64645 10.6327C8.84171 10.8442 9.15829 10.8442 9.35355 10.6327C9.54882 10.4212 9.54882 10.0782 9.35355 9.86666L6.70711 6.99968L9.35355 4.13269C9.54882 3.92116 9.54882 3.57819 9.35355 3.36666C9.15829 3.15513 8.84171 3.15513 8.64645 3.36666L6 6.23364L3.35355 3.36666Z" fill="#F7F7F7"/>
</g>
</svg>
