<svg width="24" height="24" viewBox="0 0 24 24" fill="none" xmlns="http://www.w3.org/2000/svg">
<path d="M4.256 4.80078H20.156C21.656 4.80078 22.412 5.50878 22.412 6.94878V17.0528C22.412 18.4808 21.656 19.2008 20.156 19.2008H4.256C2.756 19.2008 2 18.4808 2 17.0528V6.94878C2 5.50878 2.756 4.80078 4.256 4.80078ZM12.2 15.1208L20.288 8.48478C20.576 8.24478 20.804 7.69278 20.444 7.20078C20.096 6.70878 19.46 6.69678 19.04 6.99678L12.2 11.6288L5.372 6.99678C4.952 6.69678 4.316 6.70878 3.968 7.20078C3.608 7.69278 3.836 8.24478 4.124 8.48478L12.2 15.1208Z" fill="black"/>
</svg>
