<svg width="24" height="24" viewBox="0 0 24 24" fill="none" xmlns="http://www.w3.org/2000/svg">
<path d="M5 20C4.44772 20 4 19.5523 4 19C4 18.4477 4.44772 18 5 18H19C19.5523 18 20 18.4477 20 19C20 19.5523 19.5523 20 19 20H5Z" fill="#F7F7F7"/>
<path d="M14.9752 5.53455C14.8157 5.3765 14.5568 5.3765 14.3969 5.53455L6.70612 13.1343L5.31743 15.9667C5.19467 16.3475 5.06401 16.5356 5.35809 16.8264C5.65217 17.1171 5.84243 16.9879 6.2277 16.8666L9.0852 15.4863L16.7839 7.89397C16.9437 7.73631 16.9437 7.48031 16.7839 7.32226L14.9752 5.53455Z" fill="#F7F7F7"/>
<path d="M15.7118 4.20403C15.5752 4.33906 15.5752 4.55838 15.7118 4.6934L17.6038 6.56345C17.7404 6.69886 17.9622 6.69886 18.0988 6.56345L18.441 6.24957C18.9561 5.73991 18.9561 4.91415 18.441 4.4045L17.9199 3.88976C17.4048 3.3805 16.5691 3.3805 16.054 3.88976L15.7118 4.20403Z" fill="#F7F7F7"/>
</svg>
