<svg width="24" height="25" viewBox="0 0 24 25" fill="none" xmlns="http://www.w3.org/2000/svg">
<path d="M5 20.5C4.44772 20.5 4 20.0523 4 19.5C4 18.9477 4.44772 18.5 5 18.5H19C19.5523 18.5 20 18.9477 20 19.5C20 20.0523 19.5523 20.5 19 20.5H5Z" fill="#102D5F"/>
<path d="M14.9713 6.0326C14.8118 5.87455 14.5529 5.87455 14.393 6.0326L6.70221 13.6323L5.31353 16.4647C5.19076 16.8456 5.06011 17.0337 5.35418 17.3244C5.64826 17.6151 5.83853 17.486 6.22379 17.3646L9.08129 15.9843L16.78 8.39201C16.9398 8.23436 16.9398 7.97836 16.78 7.82031L14.9713 6.0326Z" fill="#102D5F"/>
<path d="M15.7118 4.70306C15.5752 4.83808 15.5752 5.0574 15.7118 5.19242L17.6038 7.06247C17.7404 7.19789 17.9622 7.19789 18.0988 7.06247L18.441 6.74859C18.9561 6.23893 18.9561 5.41318 18.441 4.90352L17.9199 4.38879C17.4048 3.87952 16.5691 3.87952 16.054 4.38879L15.7118 4.70306Z" fill="#102D5F"/>
</svg>
