<svg width="24" height="25" viewBox="0 0 24 25" fill="none" xmlns="http://www.w3.org/2000/svg">
<path d="M5 20.5C4.44772 20.5 4 20.0523 4 19.5C4 18.9477 4.44772 18.5 5 18.5H19C19.5523 18.5 20 18.9477 20 19.5C20 20.0523 19.5523 20.5 19 20.5H5Z" fill="#F7F7F7"/>
<path d="M14.972 6.03309C14.8125 5.87504 14.5536 5.87504 14.3937 6.03309L6.70294 13.6328L5.31426 16.4652C5.1915 16.8461 5.06084 17.0342 5.35492 17.3249C5.649 17.6156 5.83926 17.4865 6.22452 17.3651L9.08202 15.9848L16.7807 8.3925C16.9406 8.23484 16.9406 7.97884 16.7807 7.82079L14.972 6.03309Z" fill="#F7F7F7"/>
<path d="M15.7108 4.7033C15.5743 4.83833 15.5743 5.05764 15.7108 5.19267L17.6028 7.06272C17.7394 7.19813 17.9612 7.19813 18.0978 7.06272L18.44 6.74884C18.9551 6.23918 18.9551 5.41342 18.44 4.90376L17.9189 4.38903C17.4038 3.87976 16.5681 3.87976 16.053 4.38903L15.7108 4.7033Z" fill="#F7F7F7"/>
</svg>
