<svg width="24" height="24" viewBox="0 0 24 24" fill="none" xmlns="http://www.w3.org/2000/svg">
<path d="M21.1645 11.8517L12.476 3.16954C12.4135 3.10686 12.3391 3.05713 12.2573 3.0232C12.1755 2.98927 12.0879 2.9718 11.9993 2.9718C11.9107 2.9718 11.823 2.98927 11.7412 3.0232C11.6594 3.05713 11.5851 3.10686 11.5226 3.16954L2.83406 11.8517C2.58094 12.1049 2.4375 12.4487 2.4375 12.8073C2.4375 13.5519 3.04289 14.1573 3.7875 14.1573H4.70297V20.3525C4.70297 20.7259 5.00461 21.0275 5.37797 21.0275H10.6493V16.3025H13.0118V21.0275H18.6206C18.994 21.0275 19.2956 20.7259 19.2956 20.3525V14.1573H20.2111C20.5697 14.1573 20.9135 14.0159 21.1666 13.7607C21.6919 13.2334 21.6919 12.3791 21.1645 11.8517Z" fill="#04183B"/>
</svg>
