<svg width="24" height="24" viewBox="0 0 24 24" fill="none" xmlns="http://www.w3.org/2000/svg">
<path d="M18 10H9V7C9 5.346 10.346 4 12 4C13.654 4 15 5.346 15 7H17C17 4.243 14.757 2 12 2C9.243 2 7 4.243 7 7V10H6C5.46957 10 4.96086 10.2107 4.58579 10.5858C4.21071 10.9609 4 11.4696 4 12V20C4 20.5304 4.21071 21.0391 4.58579 21.4142C4.96086 21.7893 5.46957 22 6 22H18C18.5304 22 19.0391 21.7893 19.4142 21.4142C19.7893 21.0391 20 20.5304 20 20V12C20 11.4696 19.7893 10.9609 19.4142 10.5858C19.0391 10.2107 18.5304 10 18 10ZM10.061 15.499C10.1839 15.0284 10.4739 14.6187 10.8769 14.3463C11.2798 14.074 11.7681 13.9576 12.2506 14.019C12.7331 14.0803 13.1767 14.3152 13.4986 14.6798C13.8206 15.0444 13.9988 15.5136 14 16C13.9994 16.3497 13.9067 16.6932 13.7311 16.9956C13.5556 17.2981 13.3034 17.549 13 17.723V20H11V17.723C10.6216 17.5062 10.3248 17.1712 10.1552 16.7694C9.9856 16.3677 9.9525 15.9214 10.061 15.499Z" fill="black"/>
</svg>
