<svg width="18" height="18" viewBox="0 0 18 18" fill="none" xmlns="http://www.w3.org/2000/svg">
<g id="icon">
<path id="Mask" fill-rule="evenodd" clip-rule="evenodd" d="M17.5495 7.19955C17.1369 7.0803 16.4507 6.8841 15.8243 6.70545C15.7572 6.68655 15.615 6.6456 15.6091 6.64425C15.4116 6.5961 15.2649 6.4197 15.2645 6.2082C15.2645 6.1308 15.2843 6.0588 15.3184 5.99535C15.3198 5.9931 15.3995 5.85 15.439 5.77935C15.7505 5.2209 16.0884 4.61115 16.2954 4.22685C16.4065 4.01985 16.4713 3.76605 16.2954 3.59055L14.3861 1.6812C14.2101 1.50525 13.9802 1.55385 13.7498 1.6812C13.3758 1.8873 12.006 2.65005 11.9876 2.65905C11.8193 2.7432 11.6096 2.71665 11.4691 2.5767C11.4111 2.51865 11.3472 2.35305 11.3454 2.34225C11.3301 2.2878 10.9265 0.87345 10.7996 0.45C10.732 0.225 10.5979 0 10.3495 0H7.64955C7.40115 0 7.27245 0.19665 7.19955 0.45C7.0803 0.86265 6.8841 1.5489 6.70545 2.17575C6.68385 2.2518 6.6375 2.4012 6.6375 2.4012C6.5826 2.58795 6.41205 2.7252 6.20775 2.7252C6.13215 2.7252 6.0615 2.7063 5.99895 2.67345C5.99625 2.6721 4.59585 1.8927 4.2039 1.68165C3.9969 1.5705 3.7431 1.5057 3.5676 1.68165L1.6587 3.591C1.48275 3.76695 1.53135 3.9969 1.6587 4.2273C1.86885 4.608 2.2212 5.24295 2.54115 5.81805C2.5713 5.87205 2.6289 5.97915 2.6289 5.97915C2.7351 6.1524 2.71395 6.38145 2.5641 6.53175C2.5047 6.59115 2.2383 6.6843 2.1771 6.7014C1.55565 6.8778 0.87345 7.0731 0.45 7.20045C0.225 7.26795 0 7.40205 0 7.65045V10.3504C0 10.5989 0.1971 10.7276 0.45 10.8005C0.86265 10.9197 1.5489 11.1159 2.1753 11.2945C2.23785 11.3125 2.3607 11.3504 2.3607 11.3504C2.5515 11.4025 2.69235 11.5754 2.69235 11.7828C2.69235 11.8616 2.57265 12.118 2.53845 12.1783C2.22075 12.748 1.8702 13.3794 1.65825 13.7736C1.5471 13.9806 1.48275 14.2344 1.65825 14.4099L3.5676 16.3188C3.74355 16.4948 3.9735 16.4461 4.2039 16.3188C4.5828 16.11 5.2119 15.7604 5.78475 15.4422C5.8545 15.4035 5.99175 15.3297 5.99175 15.3297C6.1623 15.2375 6.3792 15.2613 6.5232 15.4053C6.5826 15.4647 6.6807 15.7518 6.7014 15.8229C6.8778 16.4443 7.0731 17.127 7.20045 17.55C7.26795 17.775 7.40205 18 7.65045 18H10.3504C10.5993 18 10.7276 17.8034 10.8005 17.55C10.9197 17.1374 11.1159 16.4511 11.2945 15.8243C11.3112 15.7662 11.3274 15.7122 11.3436 15.6528C11.3976 15.4508 11.5673 15.2937 11.7846 15.2937C11.8471 15.2937 12.1383 15.4287 12.1878 15.4562C12.749 15.7694 13.3641 16.1105 13.7507 16.3183C13.9577 16.4295 14.2115 16.4943 14.387 16.3183L16.2963 14.4094C16.4722 14.2335 16.4237 14.0035 16.2963 13.7731C16.0916 13.4015 15.7509 12.789 15.4377 12.2252C15.4049 12.1662 15.3216 12.0177 15.313 12.0006C15.2271 11.8314 15.2528 11.6203 15.394 11.479C15.4467 11.4264 15.7486 11.3202 15.8238 11.299C16.4452 11.1227 17.1275 10.9274 17.5509 10.8C17.7759 10.7325 18.0009 10.5984 18.0009 10.35V7.65C17.9995 7.40115 17.8025 7.27245 17.5495 7.19955ZM9.00049 11.8131C7.44838 11.8131 6.18785 10.5554 6.18785 9.00049C6.18785 7.44603 7.44838 6.18785 9.00049 6.18785C10.5521 6.18785 11.8131 7.44557 11.8131 9.00049C11.8131 10.5549 10.5521 11.8131 9.00049 11.8131Z" fill="#232220"/>
</g>
</svg>
