<svg width="49" height="49" viewBox="0 0 49 49" fill="none" xmlns="http://www.w3.org/2000/svg">
<path fill-rule="evenodd" clip-rule="evenodd" d="M24.5013 40.8327C33.522 40.8327 40.8346 33.52 40.8346 24.4993C40.8346 15.4787 33.522 8.16602 24.5013 8.16602C15.4806 8.16602 8.16797 15.4787 8.16797 24.4993C8.16797 33.52 15.4806 40.8327 24.5013 40.8327Z" fill="#3BB966"/>
<path fill-rule="evenodd" clip-rule="evenodd" d="M29.0294 19.1413C29.7338 18.2608 31.0186 18.1181 31.8991 18.8225C32.7796 19.5269 32.9224 20.8117 32.218 21.6922L24.0513 31.9005C23.2911 32.8507 21.8738 32.9292 21.0134 32.0688L16.93 27.9854C16.1327 27.1881 16.1327 25.8954 16.93 25.0981C17.7273 24.3007 19.0201 24.3007 19.8174 25.0981L22.2877 27.5684L29.0294 19.1413Z" fill="#F7F7F7"/>
</svg>
