<svg width="49" height="49" viewBox="0 0 49 49" fill="none" xmlns="http://www.w3.org/2000/svg">
<path fill-rule="evenodd" clip-rule="evenodd" d="M24.4974 40.8334C33.518 40.8334 40.8307 33.5207 40.8307 24.5C40.8307 15.4794 33.518 8.16669 24.4974 8.16669C15.4767 8.16669 8.16406 15.4794 8.16406 24.5C8.16406 33.5207 15.4767 40.8334 24.4974 40.8334Z" fill="#102D5F"/>
<path d="M31.7873 32.9996C31.5709 33.0059 31.3588 32.9383 31.1864 32.8082C31.0141 32.6781 30.8918 32.4933 30.8399 32.2846C30.4133 30.6061 29.4739 29.0999 28.1507 27.9729C26.8275 26.8459 25.1855 26.1533 23.45 25.9903V27.044C23.4498 27.3736 23.3518 27.6958 23.1681 27.9702C22.9844 28.2447 22.7232 28.4593 22.4173 28.587C22.0856 28.7384 21.7168 28.7915 21.3555 28.7397C20.9941 28.688 20.6555 28.5337 20.3804 28.2953L15.5864 24.1462C15.4026 23.9907 15.2549 23.7975 15.1537 23.5798C15.0524 23.3621 15 23.1252 15 22.8854C15 22.6457 15.0524 22.4088 15.1537 22.1911C15.2549 21.9734 15.4026 21.7802 15.5864 21.6247L20.3804 17.4661C20.6591 17.2237 21.0033 17.0677 21.3704 17.0176C21.7375 16.9674 22.1114 17.0252 22.4457 17.1839C22.7516 17.3116 23.0128 17.5262 23.1965 17.8007C23.3802 18.0751 23.4783 18.3973 23.4784 18.7269V19.8277C26.0518 20.0253 28.4572 21.1735 30.2199 23.0459C31.9825 24.9183 32.9745 27.3788 33 29.9418C32.9987 30.7317 32.9001 31.5185 32.7063 32.2846C32.6544 32.4933 32.5321 32.6781 32.3597 32.8082C32.1874 32.9383 31.9753 33.0059 31.7589 32.9996H31.7873Z" fill="#F7F7F7"/>
</svg>
