<svg width="24" height="25" viewBox="0 0 24 25" fill="none" xmlns="http://www.w3.org/2000/svg">
<path d="M5 16.5C5.55229 16.5 6 16.9477 6 17.5V18.5H18V17.5C18 16.9477 18.4477 16.5 19 16.5C19.5523 16.5 20 16.9477 20 17.5V19.5C20 20.0523 19.5523 20.5 19 20.5H5C4.44772 20.5 4 20.0523 4 19.5L4 17.5C4 16.9477 4.44772 16.5 5 16.5Z" fill="#F7F7F7"/>
<path d="M12.7071 3.79289L17.7071 8.79289C18.0976 9.18342 18.0976 9.81658 17.7071 10.2071C17.3166 10.5976 16.6834 10.5976 16.2929 10.2071L13 6.91421V15.5C13 16.0523 12.5523 16.5 12 16.5C11.4477 16.5 11 16.0523 11 15.5V6.91421L7.70711 10.2071C7.31658 10.5976 6.68342 10.5976 6.29289 10.2071C5.90237 9.81658 5.90237 9.18342 6.29289 8.79289L11.2929 3.79289C11.6834 3.40237 12.3166 3.40237 12.7071 3.79289Z" fill="#F7F7F7"/>
</svg>
