<svg width="22" height="22" viewBox="0 0 22 22" fill="none" xmlns="http://www.w3.org/2000/svg">
<g id="basil:plus-solid">
<path id="Vector" d="M11.6868 6.41699C11.6868 6.23466 11.6144 6.05979 11.4855 5.93086C11.3566 5.80192 11.1817 5.72949 10.9993 5.72949C10.817 5.72949 10.6421 5.80192 10.5132 5.93086C10.3843 6.05979 10.3118 6.23466 10.3118 6.41699V10.3128H6.41602C6.23368 10.3128 6.05881 10.3853 5.92988 10.5142C5.80095 10.6431 5.72852 10.818 5.72852 11.0003C5.72852 11.1827 5.80095 11.3575 5.92988 11.4865C6.05881 11.6154 6.23368 11.6878 6.41602 11.6878H10.3118V15.5837C10.3118 15.766 10.3843 15.9409 10.5132 16.0698C10.6421 16.1987 10.817 16.2712 10.9993 16.2712C11.1817 16.2712 11.3566 16.1987 11.4855 16.0698C11.6144 15.9409 11.6868 15.766 11.6868 15.5837V11.6878H15.5827C15.765 11.6878 15.9399 11.6154 16.0688 11.4865C16.1977 11.3575 16.2702 11.1827 16.2702 11.0003C16.2702 10.818 16.1977 10.6431 16.0688 10.5142C15.9399 10.3853 15.765 10.3128 15.5827 10.3128H11.6868V6.41699Z" fill="#102D5F"/>
</g>
</svg>
